<?xml version="1.0" encoding="UTF-8" standalone="no"?>
<!-- Generator: Adobe Illustrator 16.0.0, SVG Export Plug-In . SVG Version: 6.00 Build 0)  -->

<svg
   xmlns:dc="http://purl.org/dc/elements/1.1/"
   xmlns:cc="http://creativecommons.org/ns#"
   xmlns:rdf="http://www.w3.org/1999/02/22-rdf-syntax-ns#"
   xmlns:svg="http://www.w3.org/2000/svg"
   xmlns="http://www.w3.org/2000/svg"
   xmlns:sodipodi="http://sodipodi.sourceforge.net/DTD/sodipodi-0.dtd"
   xmlns:inkscape="http://www.inkscape.org/namespaces/inkscape"
   version="1.1"
   id="Capa_1"
   x="0px"
   y="0px"
   width="908.901px"
   height="908.901px"
   viewBox="0 0 908.901 908.901"
   style="enable-background:new 0 0 908.901 908.901;"
   xml:space="preserve"
   sodipodi:docname="043-connect.svg"
   inkscape:version="0.92.2 5c3e80d, 2017-08-06"><metadata
     id="metadata2626"><rdf:RDF><cc:Work
         rdf:about=""><dc:format>image/svg+xml</dc:format><dc:type
           rdf:resource="http://purl.org/dc/dcmitype/StillImage" /></cc:Work></rdf:RDF></metadata><defs
     id="defs2624" /><sodipodi:namedview
     pagecolor="#ffffff"
     bordercolor="#666666"
     borderopacity="1"
     objecttolerance="10"
     gridtolerance="10"
     guidetolerance="10"
     inkscape:pageopacity="0"
     inkscape:pageshadow="2"
     inkscape:window-width="1056"
     inkscape:window-height="826"
     id="namedview2622"
     showgrid="false"
     inkscape:zoom="0.25965424"
     inkscape:cx="454.4505"
     inkscape:cy="-7.7025509"
     inkscape:window-x="0"
     inkscape:window-y="0"
     inkscape:window-maximized="0"
     inkscape:current-layer="Capa_1" /><g
     id="g2589"><path
       d="M307.634,349.533c0.826,0,1.51-0.007,2.045-0.016L394,349.19l-42.036,42.542c-20.379,20.625-20.18,53.866,0.445,74.245   c10.231,10.109,23.566,15.155,36.897,15.155c13.541,0,27.078-5.207,37.347-15.601l131.684-133.271   c20.379-20.625,20.18-53.866-0.445-74.245L426.412,128.103c-20.625-20.379-53.865-20.18-74.245,0.445   c-20.379,20.625-20.181,53.866,0.444,74.245l41.895,41.394l-85.646,0.332l-1.604,0.031c-0.271,0.007-27.857,0.333-67.073-12.27   c-56.398-18.125-106.021-52.333-147.491-101.673c-18.657-22.197-51.774-25.066-73.969-6.41   c-22.196,18.655-25.066,51.772-6.411,73.969C134.331,343.34,283.218,349.533,307.634,349.533z"
       id="path2585" /><path
       d="M598.381,560.424h-71.104l42.251-41.747c20.625-20.379,20.824-53.619,0.445-74.244   c-20.38-20.625-53.62-20.824-74.245-0.445L364.249,573.9c-20.625,20.379-20.824,53.62-0.445,74.245l131.682,133.271   c10.271,10.395,23.806,15.601,37.348,15.601c13.33,0,26.667-5.047,36.897-15.155c20.625-20.379,20.824-53.62,0.445-74.245   l-41.689-42.192h70.381l0.47,0.036l1.108-0.056c2.728,0.005,32.121,0.245,71.957,13.553   c54.997,18.374,103.446,51.873,144.003,99.566c10.386,12.211,25.155,18.491,40.021,18.491c12.023,0,24.107-4.108,33.985-12.507   c22.088-18.783,24.768-51.917,5.983-74.005C770.111,561.999,615.311,560.149,598.381,560.424z"
       id="path2587" /></g><g
     id="g2591" /><g
     id="g2593" /><g
     id="g2595" /><g
     id="g2597" /><g
     id="g2599" /><g
     id="g2601" /><g
     id="g2603" /><g
     id="g2605" /><g
     id="g2607" /><g
     id="g2609" /><g
     id="g2611" /><g
     id="g2613" /><g
     id="g2615" /><g
     id="g2617" /><g
     id="g2619" /><path
     style="opacity:1;fill:#094074;fill-opacity:1;stroke-width:3.85127544"
     d="M 518.38167,793.92616 C 503.84373,791.30862 357.9076,641.86418 353.18416,624.75729 c -7.43007,-26.90951 -1.40487,-35.70369 77.28891,-112.8082 40.27494,-39.46157 77.65968,-74.10761 83.07719,-76.99121 22.15337,-11.79167 55.35821,3.49384 66.61264,30.66446 8.4914,20.50005 1.71959,37.00614 -27.57824,67.22113 l -26.79372,27.63248 58.87859,2.07943 c 72.30975,2.55378 107.53324,10.8301 166.71431,39.17218 81.62381,39.09 155.97665,107.16866 155.97665,142.81472 0,27.9908 -32.38302,54.84546 -59.90909,49.68154 -10.7548,-2.01762 -21.47953,-9.96688 -44.97319,-33.33457 -69.92723,-69.5523 -131.15957,-95.38886 -226.07045,-95.38886 h -52.0426 l 25.46025,25.99611 c 14.00313,14.29786 27.38798,29.78159 29.74409,34.4083 13.52243,26.55392 -8.39443,63.71072 -40.20713,68.16527 -6.24388,0.8743 -15.68519,0.80954 -20.9807,-0.14391 z"
     id="path3171"
     inkscape:connector-curvature="0" /><path
     style="opacity:1;fill:#094074;fill-opacity:1;stroke-width:3.85127544"
     d="m 374.41831,476.65533 c -25.53792,-7.64638 -41.61384,-37.90507 -33.38504,-62.83856 2.25138,-6.82176 15.34661,-23.55636 29.1005,-37.18801 13.75389,-13.63164 25.00709,-26.13467 25.00709,-27.78451 0,-1.64984 -28.3735,-2.99972 -63.05222,-2.99972 -53.93259,0 -68.34242,-1.34197 -99.6282,-9.27826 C 189.17131,325.58508 147.12993,306.86297 108.96092,281.56873 77.997008,261.04924 16.035846,203.3123 7.718715,187.22875 c -21.585939,-41.74261 25.52918,-88.844564 66.994719,-66.976 5.719864,3.0166 20.798197,16.16497 33.507406,29.21858 44.17587,45.373 102.64274,79.49659 155.34819,90.66736 14.93958,3.1664 48.04286,5.46688 79.22725,5.50581 l 53.56547,0.0669 -23.81942,-24.80547 c -29.34797,-30.56287 -36.94235,-46.74281 -31.47312,-67.05398 5.8871,-21.86303 27.50477,-39.09806 49.00437,-39.06952 17.83722,0.0237 33.39106,12.47052 107.32631,85.88695 76.75021,76.2117 81.77262,84.12475 70.79472,111.5407 -2.75725,6.88589 -37.73657,45.60937 -78.24891,86.62462 -55.49318,56.18206 -76.57575,75.09255 -86.92224,77.96685 -15.43218,4.28716 -13.76997,4.29565 -28.60515,-0.14619 z"
     id="path3173"
     inkscape:connector-curvature="0" /></svg>