<?xml version="1.0" encoding="UTF-8" standalone="no"?>
<!-- Generator: Adobe Illustrator 16.0.0, SVG Export Plug-In . SVG Version: 6.00 Build 0)  -->

<svg
   xmlns:dc="http://purl.org/dc/elements/1.1/"
   xmlns:cc="http://creativecommons.org/ns#"
   xmlns:rdf="http://www.w3.org/1999/02/22-rdf-syntax-ns#"
   xmlns:svg="http://www.w3.org/2000/svg"
   xmlns="http://www.w3.org/2000/svg"
   xmlns:sodipodi="http://sodipodi.sourceforge.net/DTD/sodipodi-0.dtd"
   xmlns:inkscape="http://www.inkscape.org/namespaces/inkscape"
   version="1.1"
   id="Capa_1"
   x="0px"
   y="0px"
   width="909.061px"
   height="909.061px"
   viewBox="0 0 909.061 909.061"
   style="enable-background:new 0 0 909.061 909.061;"
   xml:space="preserve"
   sodipodi:docname="044-goto.svg"
   inkscape:version="0.92.2 5c3e80d, 2017-08-06"><metadata
     id="metadata3345"><rdf:RDF><cc:Work
         rdf:about=""><dc:format>image/svg+xml</dc:format><dc:type
           rdf:resource="http://purl.org/dc/dcmitype/StillImage" /></cc:Work></rdf:RDF></metadata><defs
     id="defs3343" /><sodipodi:namedview
     pagecolor="#ffffff"
     bordercolor="#666666"
     borderopacity="1"
     objecttolerance="10"
     gridtolerance="10"
     guidetolerance="10"
     inkscape:pageopacity="0"
     inkscape:pageshadow="2"
     inkscape:window-width="1024"
     inkscape:window-height="941"
     id="namedview3341"
     showgrid="false"
     inkscape:zoom="0.25960855"
     inkscape:cx="454.53049"
     inkscape:cy="454.53049"
     inkscape:window-x="0"
     inkscape:window-y="0"
     inkscape:window-maximized="0"
     inkscape:current-layer="Capa_1" /><g
     id="g3308"><path
       d="M0,454.53c0,28.996,23.505,52.5,52.5,52.5h538.473l-42.252,41.748c-20.625,20.379-20.824,53.619-0.445,74.244   c10.27,10.395,23.805,15.602,37.348,15.6c13.328,0,26.666-5.045,36.896-15.154L754,493.556c9.904-9.785,15.518-23.105,15.6-37.029   c0.084-13.923-5.367-27.311-15.154-37.214L622.762,286.04c-20.379-20.624-53.617-20.826-74.244-0.445   c-20.625,20.379-20.824,53.619-0.445,74.244l41.689,42.192H52.5C23.505,402.031,0,425.536,0,454.53z"
       id="path3304" /><path
       d="M856.561,215.72c-28.996,0-52.5,23.505-52.5,52.5v372.621c0,28.994,23.504,52.5,52.5,52.5c28.994,0,52.5-23.506,52.5-52.5   V268.22C909.061,239.225,885.555,215.72,856.561,215.72z"
       id="path3306" /></g><g
     id="g3310" /><g
     id="g3312" /><g
     id="g3314" /><g
     id="g3316" /><g
     id="g3318" /><g
     id="g3320" /><g
     id="g3322" /><g
     id="g3324" /><g
     id="g3326" /><g
     id="g3328" /><g
     id="g3330" /><g
     id="g3332" /><g
     id="g3334" /><g
     id="g3336" /><g
     id="g3338" /><path
     style="opacity:1;fill:#094074;fill-opacity:1;stroke-width:3.85195327"
     d="m 558.81365,628.31632 c -21.08633,-13.08664 -28.98229,-43.4579 -17.14058,-65.92983 3.01466,-5.72087 15.14831,-19.87596 26.96368,-31.45575 11.81536,-11.57978 21.48249,-22.4134 21.48249,-24.0747 0,-1.6613 -124.36994,-3.02703 -276.37765,-3.03495 C 50.131365,503.80736 36.815875,503.47248 25.499794,496.57195 0.90834181,481.57611 -5.0983906,447.89718 12.767598,425.18426 30.320934,402.86881 18.796729,403.6847 316.43927,403.6847 c 150.52397,0 273.67997,-1.16879 273.67997,-2.59733 0,-1.42853 -12.13365,-15.11082 -26.96367,-30.40508 -26.0392,-26.85434 -26.96367,-28.46436 -26.96367,-46.9586 0,-39.85394 41.82477,-64.22959 75.24166,-43.85115 13.5083,8.23771 143.27807,142.04724 150.65945,155.34955 6.67397,12.02743 6.43473,28.28745 -0.63542,43.1867 -3.21834,6.78212 -39.57027,44.74508 -80.78208,84.36212 l -74.93059,72.03099 -18.40571,-0.1025 c -10.13849,-0.0565 -22.95121,-2.92353 -28.52556,-6.38309 z"
     id="path3890"
     inkscape:connector-curvature="0" /><path
     style="opacity:1;fill:#094074;fill-opacity:1;stroke-width:3.85195327"
     d="m 836.72103,685.96948 c -7.37278,-3.77858 -17.3397,-12.75995 -22.14873,-19.95859 l -8.74367,-13.08852 V 456.91869 c 0,-216.38572 -0.066,-215.74824 23.84291,-230.32509 7.63371,-4.65415 19.50223,-7.77963 29.57461,-7.78825 14.4164,-0.0123 18.96405,2.12567 31.77862,14.94024 l 14.95464,14.95464 v 202.87201 c 0,218.94975 0.16991,217.03209 -20.42571,230.52687 -15.38373,10.07979 -33.85942,11.54415 -48.83267,3.87037 z"
     id="path3892"
     inkscape:connector-curvature="0" /></svg>