<?xml version="1.0" encoding="iso-8859-1"?>
<!-- Generator: Adobe Illustrator 16.0.0, SVG Export Plug-In . SVG Version: 6.00 Build 0)  -->
<!DOCTYPE svg PUBLIC "-//W3C//DTD SVG 1.1//EN" "http://www.w3.org/Graphics/SVG/1.1/DTD/svg11.dtd">
<svg version="1.1" id="Capa_1" xmlns="http://www.w3.org/2000/svg" xmlns:xlink="http://www.w3.org/1999/xlink" x="0px" y="0px"
	 width="934.846px" height="934.846px" viewBox="0 0 934.846 934.846" style="enable-background:new 0 0 934.846 934.846;"
	 xml:space="preserve">
<g>
	<path d="M57.69,559.163c35.15-2.921,89.828-8.858,127.491-20.925c50.821-16.283,99.463-40.017,140.245-74.767
		c39.894-33.993,72.403-75.456,108.373-113.338c44.713-47.091,95.163-84.977,159.719-98.006
		c52.231-10.542,105.215-12.79,158.563-16.461l-42.604,43.118c-20.379,20.625-20.18,53.866,0.445,74.245
		c10.232,10.11,23.567,15.155,36.898,15.155c13.541,0,27.077-5.207,37.347-15.6L915.85,219.314
		c20.379-20.625,20.181-53.866-0.444-74.245L783.924,15.155c-20.625-20.379-53.865-20.18-74.245,0.445
		c-20.379,20.625-20.18,53.866,0.445,74.245l41.107,40.618c-0.465,0.021-0.927,0.029-1.394,0.062
		c-59.008,4.178-119.833,4.668-177.931,16.633c-116.232,23.938-191.961,103.705-264.025,191.489
		c-38.822,47.292-94.123,79.66-151.673,98.601c-29.669,9.765-77.115,14.714-107.157,17.215
		c-27.161,2.261-47.978,25.08-47.709,52.333l0.01,1.061C1.651,538.084,27.565,561.666,57.69,559.163z"/>
	<path d="M877.155,375.683c-35.15,2.921-89.828,8.858-127.491,20.926c-50.821,16.282-99.463,40.016-140.245,74.766
		c-39.894,33.992-72.403,75.456-108.373,113.338c-44.712,47.091-95.163,84.977-159.719,98.006
		c-52.231,10.542-105.215,12.79-158.563,16.461l42.604-43.118c20.379-20.625,20.18-53.865-0.445-74.245
		c-20.625-20.379-53.866-20.179-74.245,0.445L18.997,715.533c-20.379,20.625-20.18,53.866,0.445,74.245l131.48,129.912
		c10.232,10.11,23.567,15.155,36.898,15.155c13.541,0,27.078-5.207,37.347-15.6c20.379-20.625,20.18-53.866-0.445-74.245
		l-41.108-40.619c0.464-0.021,0.927-0.029,1.394-0.062c59.008-4.179,119.833-4.668,177.931-16.634
		c116.233-23.938,191.963-103.705,264.025-191.488c38.822-47.292,94.123-79.66,151.673-98.602
		c29.669-9.765,77.115-14.714,107.157-17.215c27.161-2.261,47.978-25.08,47.709-52.333l-0.01-1.061
		C933.194,396.761,907.28,373.179,877.155,375.683z"/>
</g>
<g>
</g>
<g>
</g>
<g>
</g>
<g>
</g>
<g>
</g>
<g>
</g>
<g>
</g>
<g>
</g>
<g>
</g>
<g>
</g>
<g>
</g>
<g>
</g>
<g>
</g>
<g>
</g>
<g>
</g>
</svg>
