<?xml version="1.0" encoding="UTF-8" standalone="no"?>
<!-- Generator: Adobe Illustrator 16.0.0, SVG Export Plug-In . SVG Version: 6.00 Build 0)  -->

<svg
   xmlns:dc="http://purl.org/dc/elements/1.1/"
   xmlns:cc="http://creativecommons.org/ns#"
   xmlns:rdf="http://www.w3.org/1999/02/22-rdf-syntax-ns#"
   xmlns:svg="http://www.w3.org/2000/svg"
   xmlns="http://www.w3.org/2000/svg"
   xmlns:sodipodi="http://sodipodi.sourceforge.net/DTD/sodipodi-0.dtd"
   xmlns:inkscape="http://www.inkscape.org/namespaces/inkscape"
   version="1.1"
   id="Capa_1"
   x="0px"
   y="0px"
   width="934.846px"
   height="934.846px"
   viewBox="0 0 934.846 934.846"
   style="enable-background:new 0 0 934.846 934.846;"
   xml:space="preserve"
   sodipodi:docname="045-orbit.svg"
   inkscape:version="0.92.2 5c3e80d, 2017-08-06"><metadata
     id="metadata4670"><rdf:RDF><cc:Work
         rdf:about=""><dc:format>image/svg+xml</dc:format><dc:type
           rdf:resource="http://purl.org/dc/dcmitype/StillImage" /></cc:Work></rdf:RDF></metadata><defs
     id="defs4668" /><sodipodi:namedview
     pagecolor="#ffffff"
     bordercolor="#666666"
     borderopacity="1"
     objecttolerance="10"
     gridtolerance="10"
     guidetolerance="10"
     inkscape:pageopacity="0"
     inkscape:pageshadow="2"
     inkscape:window-width="1183"
     inkscape:window-height="1074"
     id="namedview4666"
     showgrid="false"
     inkscape:zoom="0.25244799"
     inkscape:cx="467.423"
     inkscape:cy="467.423"
     inkscape:window-x="0"
     inkscape:window-y="0"
     inkscape:window-maximized="0"
     inkscape:current-layer="Capa_1" /><g
     id="g4633"><path
       d="M57.69,559.163c35.15-2.921,89.828-8.858,127.491-20.925c50.821-16.283,99.463-40.017,140.245-74.767   c39.894-33.993,72.403-75.456,108.373-113.338c44.713-47.091,95.163-84.977,159.719-98.006   c52.231-10.542,105.215-12.79,158.563-16.461l-42.604,43.118c-20.379,20.625-20.18,53.866,0.445,74.245   c10.232,10.11,23.567,15.155,36.898,15.155c13.541,0,27.077-5.207,37.347-15.6L915.85,219.314   c20.379-20.625,20.181-53.866-0.444-74.245L783.924,15.155c-20.625-20.379-53.865-20.18-74.245,0.445   c-20.379,20.625-20.18,53.866,0.445,74.245l41.107,40.618c-0.465,0.021-0.927,0.029-1.394,0.062   c-59.008,4.178-119.833,4.668-177.931,16.633c-116.232,23.938-191.961,103.705-264.025,191.489   c-38.822,47.292-94.123,79.66-151.673,98.601c-29.669,9.765-77.115,14.714-107.157,17.215   c-27.161,2.261-47.978,25.08-47.709,52.333l0.01,1.061C1.651,538.084,27.565,561.666,57.69,559.163z"
       id="path4629" /><path
       d="M877.155,375.683c-35.15,2.921-89.828,8.858-127.491,20.926c-50.821,16.282-99.463,40.016-140.245,74.766   c-39.894,33.992-72.403,75.456-108.373,113.338c-44.712,47.091-95.163,84.977-159.719,98.006   c-52.231,10.542-105.215,12.79-158.563,16.461l42.604-43.118c20.379-20.625,20.18-53.865-0.445-74.245   c-20.625-20.379-53.866-20.179-74.245,0.445L18.997,715.533c-20.379,20.625-20.18,53.866,0.445,74.245l131.48,129.912   c10.232,10.11,23.567,15.155,36.898,15.155c13.541,0,27.078-5.207,37.347-15.6c20.379-20.625,20.18-53.866-0.445-74.245   l-41.108-40.619c0.464-0.021,0.927-0.029,1.394-0.062c59.008-4.179,119.833-4.668,177.931-16.634   c116.233-23.938,191.963-103.705,264.025-191.488c38.822-47.292,94.123-79.66,151.673-98.602   c29.669-9.765,77.115-14.714,107.157-17.215c27.161-2.261,47.978-25.08,47.709-52.333l-0.01-1.061   C933.194,396.761,907.28,373.179,877.155,375.683z"
       id="path4631" /></g><g
     id="g4635" /><g
     id="g4637" /><g
     id="g4639" /><g
     id="g4641" /><g
     id="g4643" /><g
     id="g4645" /><g
     id="g4647" /><g
     id="g4649" /><g
     id="g4651" /><g
     id="g4653" /><g
     id="g4655" /><g
     id="g4657" /><g
     id="g4659" /><g
     id="g4661" /><g
     id="g4663" /><path
     style="opacity:1;fill:#094074;fill-opacity:1;stroke-width:3.96121192"
     d="M 167.66532,928.49714 C 162.9306,926.58866 125.21585,891.49637 83.85478,850.5143 2.3811221,769.78716 -0.03735672,766.00775 10.382742,735.6977 17.762454,714.23155 154.88134,577.42864 175.15207,571.30807 c 40.13367,-12.11801 76.68225,33.62822 56.88399,71.19915 -3.10017,5.88314 -15.57798,20.43973 -27.72849,32.34797 -12.1505,11.90825 -22.09182,22.65204 -22.09182,23.8751 0,1.22307 18.27109,0.93553 40.60242,-0.63897 166.69926,-11.75331 204.61264,-29.89629 314.75013,-150.61975 61.70071,-67.63113 92.58347,-93.44706 142.45342,-119.08163 44.9876,-23.12488 88.3027,-36.5683 144.26924,-44.77584 56.86946,-8.33995 76.0338,-6.41308 91.66312,9.21624 23.3349,23.3349 17.0525,66.71934 -11.54856,79.75086 -5.95596,2.71371 -26.94468,6.69213 -46.64153,8.84093 -53.38941,5.82441 -82.96635,13.69126 -123.28919,32.79237 -46.89168,22.21281 -73.59092,42.20017 -107.18628,80.24089 -147.03404,166.48977 -200.50597,193.95226 -400.50914,205.69638 -24.51,1.43923 -44.56363,3.87165 -44.56363,5.40539 0,1.53374 7.24904,8.61409 16.10898,15.73417 45.91473,36.89806 52.26992,77.65517 15.92751,102.14631 -13.75753,9.27122 -31.38794,11.18595 -46.58692,5.0595 z"
     id="path5215"
     inkscape:connector-curvature="0" /><path
     style="opacity:1;fill:#094074;fill-opacity:1;stroke-width:3.96121192"
     d="M 19.340034,540.77534 C 5.950056,527.38533 3.9612119,523.0488 3.9612119,507.24285 c 0,-14.60333 2.3717879,-20.85495 12.1275981,-31.96619 14.586236,-16.61281 13.373969,-16.22029 73.883234,-23.92267 93.227716,-11.86716 154.746596,-43.19091 215.816106,-109.88782 100.26269,-109.5016 133.69155,-138.53141 191.34394,-166.164 52.11002,-24.97615 96.25535,-33.35575 217.35059,-41.25716 l 39.09605,-2.551 -23.79401,-24.35234 C 716.69803,93.747883 704.00682,78.89579 701.582,74.137016 685.97812,43.513651 712.53,1.5526246 747.48203,1.5992922 c 16.6836,0.022262 28.73903,9.5919168 103.34034,82.0317858 103.03052,100.045382 103.02763,94.822432 0.10972,198.174912 -39.90461,40.07307 -77.3673,75.41385 -83.25045,78.53506 -15.39232,8.16617 -31.71568,7.00255 -47.08776,-3.35669 C 704.4273,346.08969 697.31,333.11974 697.2318,314.41132 c -0.0697,-16.69605 5.85903,-26.22558 35.05082,-56.33836 l 22.08035,-22.77697 -19.68203,0.0424 c -32.46617,0.07 -126.72808,11.13689 -153.30449,17.99891 -33.95313,8.76669 -79.2932,33.04505 -110.08247,58.94614 -14.11166,11.87123 -47.38564,45.52149 -73.94224,74.77836 -26.55657,29.25684 -58.017,61.50887 -69.91204,71.67112 -31.10238,26.57157 -80.53852,55.15397 -120.24346,69.52089 -38.71205,14.00764 -112.724743,27.90032 -148.637724,27.90032 -22.410917,0 -24.761331,-0.92165 -39.218482,-15.37881 z"
     id="path5217"
     inkscape:connector-curvature="0" /></svg>