<?xml version="1.0" encoding="UTF-8" standalone="no"?>
<svg
   xmlns:dc="http://purl.org/dc/elements/1.1/"
   xmlns:cc="http://creativecommons.org/ns#"
   xmlns:rdf="http://www.w3.org/1999/02/22-rdf-syntax-ns#"
   xmlns:svg="http://www.w3.org/2000/svg"
   xmlns="http://www.w3.org/2000/svg"
   xmlns:sodipodi="http://sodipodi.sourceforge.net/DTD/sodipodi-0.dtd"
   xmlns:inkscape="http://www.inkscape.org/namespaces/inkscape"
   version="1.1"
   id="Capa_1"
   x="0px"
   y="0px"
   viewBox="0 0 52.519 52.519"
   style="enable-background:new 0 0 52.519 52.519;"
   xml:space="preserve"
   width="512"
   height="512"
   class=""
   sodipodi:docname="orbit_backward.svg"
   inkscape:version="0.92.2 5c3e80d, 2017-08-06"><metadata
     id="metadata948"><rdf:RDF><cc:Work
         rdf:about=""><dc:format>image/svg+xml</dc:format><dc:type
           rdf:resource="http://purl.org/dc/dcmitype/StillImage" /><dc:title></dc:title></cc:Work></rdf:RDF></metadata><defs
     id="defs946" /><sodipodi:namedview
     pagecolor="#ffffff"
     bordercolor="#666666"
     borderopacity="1"
     objecttolerance="10"
     gridtolerance="10"
     guidetolerance="10"
     inkscape:pageopacity="0"
     inkscape:pageshadow="2"
     inkscape:window-width="1257"
     inkscape:window-height="1113"
     id="namedview944"
     showgrid="false"
     inkscape:zoom="1"
     inkscape:cx="256"
     inkscape:cy="256"
     inkscape:window-x="0"
     inkscape:window-y="0"
     inkscape:window-maximized="0"
     inkscape:current-layer="Capa_1" /><path
     style="opacity:1;fill:#2188dd;fill-opacity:0"
     d="M 125.39643,402.64482 16.492862,294.2 H 81.437183 146.3815 l 1.20282,-22.25 c 2.75182,-50.9041 12.2261,-89.91636 30.88937,-127.19317 C 189.34734,123.0385 199.94566,108.95996 222.2429,86.61489 269.21157,39.545469 328.77399,10.773006 395.8,2.7757068 c 29.91954,-3.56989103 55.94137,-2.94386119 82.5,1.9847748 7.7,1.4289327 14.60305,2.7888238 15.3401,3.0219802 0.73706,0.2331564 -6.75195,5.3051142 -16.64225,11.2710182 -34.15262,20.601133 -53.28735,35.243728 -77.27959,59.137176 -18.12481,18.050174 -27.22595,28.964734 -39.06736,46.851614 -22.49124,33.97383 -36.66773,73.10926 -40.91552,112.95088 -1.21736,11.41802 -0.78923,49.39762 0.60823,53.95685 l 0.68965,2.25 h 66.02714 66.02713 L 344.31488,402.45 c -59.82496,59.5375 -109.05215,108.33767 -109.39377,108.44482 -0.34161,0.10715 -49.62772,-48.60535 -109.52468,-108.25 z"
     id="path950"
     inkscape:connector-curvature="0"
     transform="scale(0.10257617)" /><path
     style="opacity:1;fill:#2188dd;fill-opacity:0"
     d="M 125.39643,402.64482 16.492862,294.2 H 81.437183 146.3815 l 1.20282,-22.25 c 2.75182,-50.9041 12.2261,-89.91636 30.88937,-127.19317 C 189.34734,123.0385 199.94566,108.95996 222.2429,86.61489 269.21157,39.545469 328.77399,10.773006 395.8,2.7757068 c 29.91954,-3.56989103 55.94137,-2.94386119 82.5,1.9847748 7.7,1.4289327 14.60305,2.7888238 15.3401,3.0219802 0.73706,0.2331564 -6.75195,5.3051142 -16.64225,11.2710182 -34.15262,20.601133 -53.28735,35.243728 -77.27959,59.137176 -18.12481,18.050174 -27.22595,28.964734 -39.06736,46.851614 -22.49124,33.97383 -36.66773,73.10926 -40.91552,112.95088 -1.21736,11.41802 -0.78923,49.39762 0.60823,53.95685 l 0.68965,2.25 h 66.02714 66.02713 L 344.31488,402.45 c -59.82496,59.5375 -109.05215,108.33767 -109.39377,108.44482 -0.34161,0.10715 -49.62772,-48.60535 -109.52468,-108.25 z"
     id="path952"
     inkscape:connector-curvature="0"
     transform="scale(0.10257617)" /><path
     style="opacity:1;fill:#2188dd;fill-opacity:0"
     d="M 125.39643,402.64482 16.492862,294.2 H 81.437183 146.3815 l 1.20282,-22.25 c 2.75182,-50.9041 12.2261,-89.91636 30.88937,-127.19317 C 189.34734,123.0385 199.94566,108.95996 222.2429,86.61489 269.21157,39.545469 328.77399,10.773006 395.8,2.7757068 c 29.91954,-3.56989103 55.94137,-2.94386119 82.5,1.9847748 7.7,1.4289327 14.60305,2.7888238 15.3401,3.0219802 0.73706,0.2331564 -6.75195,5.3051142 -16.64225,11.2710182 -34.15262,20.601133 -53.28735,35.243728 -77.27959,59.137176 -18.12481,18.050174 -27.22595,28.964734 -39.06736,46.851614 -22.49124,33.97383 -36.66773,73.10926 -40.91552,112.95088 -1.21736,11.41802 -0.78923,49.39762 0.60823,53.95685 l 0.68965,2.25 h 66.02714 66.02713 L 344.31488,402.45 c -59.82496,59.5375 -109.05215,108.33767 -109.39377,108.44482 -0.34161,0.10715 -49.62772,-48.60535 -109.52468,-108.25 z"
     id="path954"
     inkscape:connector-curvature="0"
     transform="scale(0.10257617)" /><path
     style="opacity:1;fill:#2188dd;fill-opacity:0;"
     d="M 125.39643,402.64482 16.492862,294.2 H 81.437183 146.3815 l 1.20282,-22.25 c 2.75182,-50.9041 12.2261,-89.91636 30.88937,-127.19317 C 189.34734,123.0385 199.94566,108.95996 222.2429,86.61489 269.21157,39.545469 328.77399,10.773006 395.8,2.7757068 c 29.91954,-3.56989103 55.94137,-2.94386119 82.5,1.9847748 7.7,1.4289327 14.60305,2.7888238 15.3401,3.0219802 0.73706,0.2331564 -6.75195,5.3051142 -16.64225,11.2710182 -34.15262,20.601133 -53.28735,35.243728 -77.27959,59.137176 -18.12481,18.050174 -27.22595,28.964734 -39.06736,46.851614 -22.49124,33.97383 -36.66773,73.10926 -40.91552,112.95088 -1.21736,11.41802 -0.78923,49.39762 0.60823,53.95685 l 0.68965,2.25 h 66.02714 66.02713 L 344.31488,402.45 c -59.82496,59.5375 -109.05215,108.33767 -109.39377,108.44482 -0.34161,0.10715 -49.62772,-48.60535 -109.52468,-108.25 z"
     id="path956"
     inkscape:connector-curvature="0"
     transform="scale(0.10257617)" /><path
     style="opacity:1;fill:#2188dd;fill-opacity:0"
     d="M 125.39643,402.64482 16.492862,294.2 H 81.437183 146.3815 l 1.20282,-22.25 c 2.75182,-50.9041 12.2261,-89.91636 30.88937,-127.19317 C 189.34734,123.0385 199.94566,108.95996 222.2429,86.61489 269.21157,39.545469 328.77399,10.773006 395.8,2.7757068 c 29.91954,-3.56989103 55.94137,-2.94386119 82.5,1.9847748 7.7,1.4289327 14.60305,2.7888238 15.3401,3.0219802 0.73706,0.2331564 -6.75195,5.3051142 -16.64225,11.2710182 -34.15262,20.601133 -53.28735,35.243728 -77.27959,59.137176 -18.12481,18.050174 -27.22595,28.964734 -39.06736,46.851614 -22.49124,33.97383 -36.66773,73.10926 -40.91552,112.95088 -1.21736,11.41802 -0.78923,49.39762 0.60823,53.95685 l 0.68965,2.25 h 66.02714 66.02713 L 344.31488,402.45 c -59.82496,59.5375 -109.05215,108.33767 -109.39377,108.44482 -0.34161,0.10715 -49.62772,-48.60535 -109.52468,-108.25 z"
     id="path1114"
     inkscape:connector-curvature="0"
     transform="scale(0.10257617)" /><path
     style="opacity:1;fill:#2188dd;fill-opacity:0"
     d="M 125.39643,402.64482 16.492862,294.2 H 81.437183 146.3815 l 1.20282,-22.25 c 2.75182,-50.9041 12.2261,-89.91636 30.88937,-127.19317 C 189.34734,123.0385 199.94566,108.95996 222.2429,86.61489 269.21157,39.545469 328.77399,10.773006 395.8,2.7757068 c 29.91954,-3.56989103 55.94137,-2.94386119 82.5,1.9847748 7.7,1.4289327 14.60305,2.7888238 15.3401,3.0219802 0.73706,0.2331564 -6.75195,5.3051142 -16.64225,11.2710182 -34.15262,20.601133 -53.28735,35.243728 -77.27959,59.137176 -18.12481,18.050174 -27.22595,28.964734 -39.06736,46.851614 -22.49124,33.97383 -36.66773,73.10926 -40.91552,112.95088 -1.21736,11.41802 -0.78923,49.39762 0.60823,53.95685 l 0.68965,2.25 h 66.02714 66.02713 L 344.31488,402.45 c -59.82496,59.5375 -109.05215,108.33767 -109.39377,108.44482 -0.34161,0.10715 -49.62772,-48.60535 -109.52468,-108.25 z"
     id="path1116"
     inkscape:connector-curvature="0"
     transform="scale(0.10257617)" /><path
     style="opacity:1;fill:#2188dd;fill-opacity:0"
     d="M 125.39643,402.64482 16.492862,294.2 H 81.437183 146.3815 l 1.20282,-22.25 c 2.75182,-50.9041 12.2261,-89.91636 30.88937,-127.19317 C 189.34734,123.0385 199.94566,108.95996 222.2429,86.61489 269.21157,39.545469 328.77399,10.773006 395.8,2.7757068 c 29.91954,-3.56989103 55.94137,-2.94386119 82.5,1.9847748 7.7,1.4289327 14.60305,2.7888238 15.3401,3.0219802 0.73706,0.2331564 -6.75195,5.3051142 -16.64225,11.2710182 -34.15262,20.601133 -53.28735,35.243728 -77.27959,59.137176 -18.12481,18.050174 -27.22595,28.964734 -39.06736,46.851614 -22.49124,33.97383 -36.66773,73.10926 -40.91552,112.95088 -1.21736,11.41802 -0.78923,49.39762 0.60823,53.95685 l 0.68965,2.25 h 66.02714 66.02713 L 344.31488,402.45 c -59.82496,59.5375 -109.05215,108.33767 -109.39377,108.44482 -0.34161,0.10715 -49.62772,-48.60535 -109.52468,-108.25 z"
     id="path1118"
     inkscape:connector-curvature="0"
     transform="scale(0.10257617)" /><path
     style="opacity:1;fill:#2188dd;fill-opacity:0"
     d="M 125.39643,402.64482 16.492862,294.2 H 81.437183 146.3815 l 1.20282,-22.25 c 2.75182,-50.9041 12.2261,-89.91636 30.88937,-127.19317 C 189.34734,123.0385 199.94566,108.95996 222.2429,86.61489 269.21157,39.545469 328.77399,10.773006 395.8,2.7757068 c 29.91954,-3.56989103 55.94137,-2.94386119 82.5,1.9847748 7.7,1.4289327 14.60305,2.7888238 15.3401,3.0219802 0.73706,0.2331564 -6.75195,5.3051142 -16.64225,11.2710182 -34.15262,20.601133 -53.28735,35.243728 -77.27959,59.137176 -18.12481,18.050174 -27.22595,28.964734 -39.06736,46.851614 -22.49124,33.97383 -36.66773,73.10926 -40.91552,112.95088 -1.21736,11.41802 -0.78923,49.39762 0.60823,53.95685 l 0.68965,2.25 h 66.02714 66.02713 L 344.31488,402.45 c -59.82496,59.5375 -109.05215,108.33767 -109.39377,108.44482 -0.34161,0.10715 -49.62772,-48.60535 -109.52468,-108.25 z"
     id="path1120"
     inkscape:connector-curvature="0"
     transform="scale(0.10257617)" /><path
     style="opacity:1;fill:#2188dd;fill-opacity:0"
     d="M 125.39643,402.64482 16.492862,294.2 H 81.437183 146.3815 l 1.20282,-22.25 c 2.75182,-50.9041 12.2261,-89.91636 30.88937,-127.19317 C 189.34734,123.0385 199.94566,108.95996 222.2429,86.61489 269.21157,39.545469 328.77399,10.773006 395.8,2.7757068 c 29.91954,-3.56989103 55.94137,-2.94386119 82.5,1.9847748 7.7,1.4289327 14.60305,2.7888238 15.3401,3.0219802 0.73706,0.2331564 -6.75195,5.3051142 -16.64225,11.2710182 -34.15262,20.601133 -53.28735,35.243728 -77.27959,59.137176 -18.12481,18.050174 -27.22595,28.964734 -39.06736,46.851614 -22.49124,33.97383 -36.66773,73.10926 -40.91552,112.95088 -1.21736,11.41802 -0.78923,49.39762 0.60823,53.95685 l 0.68965,2.25 h 66.02714 66.02713 L 344.31488,402.45 c -59.82496,59.5375 -109.05215,108.33767 -109.39377,108.44482 -0.34161,0.10715 -49.62772,-48.60535 -109.52468,-108.25 z"
     id="path1122"
     inkscape:connector-curvature="0"
     transform="scale(0.10257617)" /><path
     style="opacity:1;fill:#2188dd;fill-opacity:0"
     d="M 125.39643,402.64482 16.492862,294.2 H 81.437183 146.3815 l 1.20282,-22.25 c 2.75182,-50.9041 12.2261,-89.91636 30.88937,-127.19317 C 189.34734,123.0385 199.94566,108.95996 222.2429,86.61489 269.21157,39.545469 328.77399,10.773006 395.8,2.7757068 c 29.91954,-3.56989103 55.94137,-2.94386119 82.5,1.9847748 7.7,1.4289327 14.60305,2.7888238 15.3401,3.0219802 0.73706,0.2331564 -6.75195,5.3051142 -16.64225,11.2710182 -34.15262,20.601133 -53.28735,35.243728 -77.27959,59.137176 -18.12481,18.050174 -27.22595,28.964734 -39.06736,46.851614 -22.49124,33.97383 -36.66773,73.10926 -40.91552,112.95088 -1.21736,11.41802 -0.78923,49.39762 0.60823,53.95685 l 0.68965,2.25 h 66.02714 66.02713 L 344.31488,402.45 c -59.82496,59.5375 -109.05215,108.33767 -109.39377,108.44482 -0.34161,0.10715 -49.62772,-48.60535 -109.52468,-108.25 z"
     id="path1124"
     inkscape:connector-curvature="0"
     transform="scale(0.10257617)" /><path
     style="opacity:1;fill:#2188dd;fill-opacity:0"
     d="M 125.39643,402.64482 16.492862,294.2 H 81.437183 146.3815 l 1.20282,-22.25 c 2.75182,-50.9041 12.2261,-89.91636 30.88937,-127.19317 C 189.34734,123.0385 199.94566,108.95996 222.2429,86.61489 269.21157,39.545469 328.77399,10.773006 395.8,2.7757068 c 29.91954,-3.56989103 55.94137,-2.94386119 82.5,1.9847748 7.7,1.4289327 14.60305,2.7888238 15.3401,3.0219802 0.73706,0.2331564 -6.75195,5.3051142 -16.64225,11.2710182 -34.15262,20.601133 -53.28735,35.243728 -77.27959,59.137176 -18.12481,18.050174 -27.22595,28.964734 -39.06736,46.851614 -22.49124,33.97383 -36.66773,73.10926 -40.91552,112.95088 -1.21736,11.41802 -0.78923,49.39762 0.60823,53.95685 l 0.68965,2.25 h 66.02714 66.02713 L 344.31488,402.45 c -59.82496,59.5375 -109.05215,108.33767 -109.39377,108.44482 -0.34161,0.10715 -49.62772,-48.60535 -109.52468,-108.25 z"
     id="path1126"
     inkscape:connector-curvature="0"
     transform="scale(0.10257617)" /><path
     style="opacity:1;fill:#2188dd;fill-opacity:0"
     d="M 125.39643,402.64482 16.492862,294.2 H 81.437183 146.3815 l 1.20282,-22.25 c 2.75182,-50.9041 12.2261,-89.91636 30.88937,-127.19317 C 189.34734,123.0385 199.94566,108.95996 222.2429,86.61489 269.21157,39.545469 328.77399,10.773006 395.8,2.7757068 c 29.91954,-3.56989103 55.94137,-2.94386119 82.5,1.9847748 7.7,1.4289327 14.60305,2.7888238 15.3401,3.0219802 0.73706,0.2331564 -6.75195,5.3051142 -16.64225,11.2710182 -34.15262,20.601133 -53.28735,35.243728 -77.27959,59.137176 -18.12481,18.050174 -27.22595,28.964734 -39.06736,46.851614 -22.49124,33.97383 -36.66773,73.10926 -40.91552,112.95088 -1.21736,11.41802 -0.78923,49.39762 0.60823,53.95685 l 0.68965,2.25 h 66.02714 66.02713 L 344.31488,402.45 c -59.82496,59.5375 -109.05215,108.33767 -109.39377,108.44482 -0.34161,0.10715 -49.62772,-48.60535 -109.52468,-108.25 z"
     id="path1128"
     inkscape:connector-curvature="0"
     transform="scale(0.10257617)" /><path
     style="opacity:1;fill:#094074;fill-opacity:1;stroke-width:0.10257617"
     d="M 13.55808,41.334249 C 7.4720674,35.284185 2.4792934,30.305215 2.4630264,30.269869 c -0.01627,-0.03534 2.90298,-0.08555 6.487215,-0.111575 3.5842346,-0.02602 6.5402346,-0.07075 6.5688866,-0.09941 0.05168,-0.05168 0.139124,-0.908997 0.36449,-3.573717 0.378253,-4.472444 1.261445,-7.876946 2.913818,-11.23209 1.328884,-2.698298 2.354503,-4.084384 4.770278,-6.4468578 3.74016,-3.657636 7.768904,-6.044647 12.573015,-7.44945 4.53207,-1.32525392 9.828697,-1.61268892 13.998505,-0.75966695 0.423127,0.08656 0.808494,0.195277 0.856372,0.241594 0.04788,0.04632 -1.129183,0.88859595 -2.615692,1.87173095 -1.486509,0.983136 -3.187415,2.176348 -3.779792,2.651584 -1.277398,1.024793 -4.602014,4.3179497 -5.532644,5.4802898 -2.072457,2.588463 -3.838783,6.026165 -4.784515,9.311831 -0.727762,2.528398 -0.77613,2.89973 -0.831339,6.382323 -0.0421,2.655853 -0.02623,3.21189 0.09634,3.374218 0.140664,0.186293 0.422074,0.196476 6.782745,0.245442 3.649797,0.0281 6.622804,0.08204 6.606683,0.119865 -0.05538,0.12996 -22.162549,22.058383 -22.238187,22.058383 -0.04161,0 -5.055115,-4.950052 -11.141128,-11.000116 z"
     id="path1142"
     inkscape:connector-curvature="0" /></svg>