<?xml version="1.0" encoding="UTF-8" standalone="no"?>
<!-- Generator: Adobe Illustrator 19.0.0, SVG Export Plug-In . SVG Version: 6.00 Build 0)  -->

<svg
   xmlns:dc="http://purl.org/dc/elements/1.1/"
   xmlns:cc="http://creativecommons.org/ns#"
   xmlns:rdf="http://www.w3.org/1999/02/22-rdf-syntax-ns#"
   xmlns:svg="http://www.w3.org/2000/svg"
   xmlns="http://www.w3.org/2000/svg"
   xmlns:sodipodi="http://sodipodi.sourceforge.net/DTD/sodipodi-0.dtd"
   xmlns:inkscape="http://www.inkscape.org/namespaces/inkscape"
   version="1.1"
   id="Capa_1"
   x="0px"
   y="0px"
   viewBox="0 0 508.52 508.52"
   style="enable-background:new 0 0 508.52 508.52;"
   xml:space="preserve"
   sodipodi:docname="035-sign.svg"
   inkscape:version="0.92.2 5c3e80d, 2017-08-06"><metadata
     id="metadata11360"><rdf:RDF><cc:Work
         rdf:about=""><dc:format>image/svg+xml</dc:format><dc:type
           rdf:resource="http://purl.org/dc/dcmitype/StillImage" /></cc:Work></rdf:RDF></metadata><defs
     id="defs11358" /><sodipodi:namedview
     pagecolor="#ffffff"
     bordercolor="#666666"
     borderopacity="1"
     objecttolerance="10"
     gridtolerance="10"
     guidetolerance="10"
     inkscape:pageopacity="0"
     inkscape:pageshadow="2"
     inkscape:window-width="1023"
     inkscape:window-height="1000"
     id="namedview11356"
     showgrid="false"
     inkscape:zoom="0.46409188"
     inkscape:cx="254.25999"
     inkscape:cy="254.25999"
     inkscape:window-x="0"
     inkscape:window-y="0"
     inkscape:window-maximized="0"
     inkscape:current-layer="Capa_1" /><g
     id="g11323"><g
       id="g11321"><path
         style="fill:#010002;"
         d="M254.26,0C113.845,0,0,113.845,0,254.26s113.845,254.26,254.26,254.26    s254.26-113.845,254.26-254.26S394.675,0,254.26,0z M254.26,444.955c-105.136,0-190.695-85.527-190.695-190.695    c0-41.127,13.222-79.138,35.437-110.317l265.543,265.574C333.335,431.733,295.386,444.955,254.26,444.955z M409.517,364.577    L143.943,99.002c31.179-22.216,69.19-35.437,110.317-35.437c105.168,0,190.695,85.558,190.695,190.695    C444.955,295.386,431.733,333.398,409.517,364.577z"
         id="path11319" /></g></g><g
     id="g11325" /><g
     id="g11327" /><g
     id="g11329" /><g
     id="g11331" /><g
     id="g11333" /><g
     id="g11335" /><g
     id="g11337" /><g
     id="g11339" /><g
     id="g11341" /><g
     id="g11343" /><g
     id="g11345" /><g
     id="g11347" /><g
     id="g11349" /><g
     id="g11351" /><g
     id="g11353" /><path
     style="opacity:1;fill:#0f0202;fill-opacity:1;stroke-width:2.15474582"
     d="M 215.47457,504.36853 C 135.29745,491.79535 64.172232,439.63518 27.508421,366.52225 3.3755117,318.39775 -4.5186579,257.73293 6.3876978,204.21453 25.869638,108.61502 96.861547,34.213022 193.2523,8.373926 c 19.22998,-5.1549066 24.75494,-5.6682321 61.00769,-5.6682321 36.25276,0 41.77772,0.5133255 61.00771,5.6682321 82.70838,22.171318 147.22246,80.349132 177.0884,159.695594 13.64607,36.25428 18.32406,93.02266 10.86367,131.83286 -25.96424,135.07032 -153.29639,225.55007 -287.7452,204.46615 z m 77.12301,-62.61144 c 25.28454,-5.19647 71.38961,-25.92192 71.51195,-32.1465 0.0235,-1.18873 -59.6356,-61.79095 -132.57551,-134.67161 C 104.78925,148.29714 98.771281,142.61955 95.647656,146.73818 c -7.16693,9.44992 -22.690125,44.06838 -27.05375,60.33288 -6.58595,24.54775 -6.58595,70.26107 0,94.80881 19.02063,70.89545 75.405704,124.61789 146.880664,139.94464 19.265,4.1311 56.85417,4.09824 77.12301,-0.0674 z M 417.468,354.13246 c 10.18087,-16.88192 17.25022,-33.41511 22.42502,-52.4458 6.2496,-22.9834 6.78723,-70.51293 1.03369,-91.38348 C 428.3692,164.75168 406.93569,131.15202 373.47206,104.55971 319.26523,61.483519 246.03925,51.179132 180.95351,77.468429 c -15.89159,6.418897 -36.58555,18.73577 -36.58555,21.775416 0,2.225585 262.89411,266.201025 265.11056,266.201025 0.64205,0 4.23731,-5.09058 7.98948,-11.31241 z"
     id="path11905"
     inkscape:connector-curvature="0" /><path
     style="opacity:1;fill:#2d0505;fill-opacity:1;stroke-width:2.15474582"
     d="M 215.47457,504.53392 C 99.374211,485.45755 12.422494,392.02431 2.3019825,275.4711 -6.6313301,172.59028 48.550054,74.43081 141.77369,27.371668 c 83.06056,-41.928841 187.91124,-32.5237613 263.23988,23.61255 19.42266,14.474141 45.47925,41.384937 58.17934,60.086652 65.61515,96.62259 56.45664,228.00481 -21.85682,313.54461 -35.11662,38.35698 -79.81339,64.42317 -131.17355,76.49759 -26.01493,6.11595 -68.86397,7.66398 -94.68797,3.42085 z m 70.17218,-61.62805 c 25.46078,-4.50967 60.81964,-18.66622 74.19578,-29.70565 l 5.38687,-4.4458 L 240.25415,283.53331 C 171.51776,214.66169 111.51117,155.27994 106.90617,151.57384 l -8.372715,-6.73836 -4.345947,5.26084 c -6.950512,8.41371 -20.674173,39.21894 -25.589683,57.44064 -5.954683,22.07391 -6.520381,67.76783 -1.110062,89.66477 14.305587,57.89832 53.316807,105.34399 107.383817,130.60077 16.94025,7.91344 35.65743,13.80341 50.29935,15.82829 13.48877,1.86543 48.20032,1.44935 60.47582,-0.72492 z m 134.46413,-93.75549 c 31.71034,-55.42251 33.75,-121.61012 5.51535,-178.97391 -23.25304,-47.24276 -61.76507,-80.732551 -112.40664,-97.748022 -18.75142,-6.300442 -24.67865,-7.259782 -50.38254,-8.154583 -32.60669,-1.135099 -52.22006,1.814927 -77.09796,11.596223 -16.88895,6.64026 -35.40859,16.720833 -39.27275,21.376861 -2.31558,2.790111 16.77695,22.804591 129.48274,135.735301 72.70935,72.85445 132.79282,132.46262 133.5188,132.46262 0.726,0 5.51535,-7.33251 10.643,-16.29449 z"
     id="path11907"
     inkscape:connector-curvature="0" /><path
     style="opacity:1;fill:#2d0505;fill-opacity:1;stroke-width:2.15474582"
     d="M 220.32206,505.51517 C 163.77281,497.51407 108.39676,468.67891 69.284116,426.86737 -1.522001,351.17541 -18.619602,238.3197 26.554741,144.82466 103.90828,-15.270014 314.7007,-48.27552 437.68492,80.450622 c 20.36289,21.313578 31.78099,38.035678 45.31021,66.357868 15.98162,33.45609 21.46114,57.28202 22.77915,99.048 0.84199,26.68165 0.28195,38.75659 -2.4772,53.41032 -22.32043,118.54302 -121.20005,203.80187 -240.4181,207.30031 -15.99899,0.46948 -35.14959,-0.004 -42.55692,-1.05195 z m 83.49709,-66.80414 c 18.42365,-5.26745 48.03417,-18.70571 56.02338,-25.42533 L 365.2294,408.7549 248.87313,292.15251 C 113.38792,156.38074 100.37961,144.08635 96.029186,147.69687 c -4.389934,3.64333 -19.598007,35.42218 -24.804978,51.83258 -13.025806,41.05243 -8.3265,100.47672 10.957604,138.56248 26.416318,52.17178 78.020188,91.78992 135.447508,103.98792 20.48448,4.35106 65.31745,2.59871 86.18983,-3.36882 z m 116.14993,-89.96544 c 23.05759,-38.97241 30.69148,-89.94895 20.40951,-136.28766 -16.35631,-73.7145 -74.53535,-130.45491 -149.22461,-145.534661 -22.48162,-4.539037 -63.24409,-3.459164 -85.08195,2.253976 -18.68971,4.889534 -58.23969,24.587519 -59.13695,29.453336 -0.73251,3.972389 257.29416,264.856449 261.83169,264.731209 1.42847,-0.0394 6.46951,-6.6167 11.20231,-14.6162 z"
     id="path11909"
     inkscape:connector-curvature="0" /><path
     style="opacity:1;fill:#2d0505;fill-opacity:1;stroke-width:2.15474582"
     d="M 219.06201,505.29518 C 148.61513,495.00025 82.811086,453.73237 44.177687,395.61944 -13.10088,309.46016 -12.64434,196.43757 45.327084,111.07087 67.024792,79.119576 103.59937,47.092791 139.16509,28.900954 292.56762,-49.564301 479.439,46.465191 504.30727,216.54027 c 4.11485,28.14156 1.65695,76.3262 -5.23248,102.57757 -25.74764,98.1085 -111.44041,173.24487 -212.49361,186.31673 -19.19534,2.48302 -50.00956,2.41941 -67.51917,-0.13942 z m 62.51507,-62.45423 c 9.27037,-1.28124 22.67302,-4.24716 29.78368,-6.59094 C 327.46888,430.9405 358.69692,415.7486 362.214,411.51077 364.41105,408.8635 347.92276,391.3781 261.60776,304.8205 133.71469,176.56801 99.937886,144.45294 96.202656,147.55291 c -5.289941,4.39026 -22.96646,44.6453 -27.488446,62.59991 -3.954304,15.70062 -4.443627,22.57023 -3.606844,50.63653 0.87766,29.43734 1.614303,34.38431 7.883428,52.94163 10.046443,29.73861 23.671666,51.43033 46.694366,74.33872 45.05333,44.82964 99.80271,63.35244 161.89192,54.77125 z m 140.18787,-98.03731 c 12.34436,-22.94591 19.53264,-46.35908 21.79754,-70.99762 5.23183,-56.91399 -12.38326,-109.51561 -49.9006,-149.01161 C 357.76152,87.000653 315.62375,67.074916 266.1111,64.479326 c -27.2308,-1.427515 -48.63421,1.266719 -72.18399,9.086425 -17.96228,5.964379 -45.548,20.198821 -46.87824,24.189535 -0.94223,2.826694 160.57002,168.436954 222.49002,228.135224 21.33198,20.56657 39.74372,37.07565 40.91496,36.68685 1.17125,-0.38882 6.26126,-8.38698 11.3111,-17.77372 z"
     id="path11911"
     inkscape:connector-curvature="0" /></svg>