<?xml version="1.0" encoding="UTF-8" standalone="no"?>
<!-- Generator: Adobe Illustrator 16.0.0, SVG Export Plug-In . SVG Version: 6.00 Build 0)  -->

<svg
   xmlns:dc="http://purl.org/dc/elements/1.1/"
   xmlns:cc="http://creativecommons.org/ns#"
   xmlns:rdf="http://www.w3.org/1999/02/22-rdf-syntax-ns#"
   xmlns:svg="http://www.w3.org/2000/svg"
   xmlns="http://www.w3.org/2000/svg"
   xmlns:sodipodi="http://sodipodi.sourceforge.net/DTD/sodipodi-0.dtd"
   xmlns:inkscape="http://www.inkscape.org/namespaces/inkscape"
   version="1.1"
   id="Capa_1"
   x="0px"
   y="0px"
   width="908.901px"
   height="908.901px"
   viewBox="0 0 908.901 908.901"
   style="enable-background:new 0 0 908.901 908.901;"
   xml:space="preserve"
   sodipodi:docname="043-connect.svg"
   inkscape:version="0.92.2 5c3e80d, 2017-08-06"><metadata
     id="metadata12042"><rdf:RDF><cc:Work
         rdf:about=""><dc:format>image/svg+xml</dc:format><dc:type
           rdf:resource="http://purl.org/dc/dcmitype/StillImage" /></cc:Work></rdf:RDF></metadata><defs
     id="defs12040" /><sodipodi:namedview
     pagecolor="#ffffff"
     bordercolor="#666666"
     borderopacity="1"
     objecttolerance="10"
     gridtolerance="10"
     guidetolerance="10"
     inkscape:pageopacity="0"
     inkscape:pageshadow="2"
     inkscape:window-width="1125"
     inkscape:window-height="971"
     id="namedview12038"
     showgrid="false"
     inkscape:zoom="0.25965424"
     inkscape:cx="454.4505"
     inkscape:cy="454.4505"
     inkscape:window-x="0"
     inkscape:window-y="0"
     inkscape:window-maximized="0"
     inkscape:current-layer="Capa_1" /><g
     id="g12005"><path
       d="M307.634,349.533c0.826,0,1.51-0.007,2.045-0.016L394,349.19l-42.036,42.542c-20.379,20.625-20.18,53.866,0.445,74.245   c10.231,10.109,23.566,15.155,36.897,15.155c13.541,0,27.078-5.207,37.347-15.601l131.684-133.271   c20.379-20.625,20.18-53.866-0.445-74.245L426.412,128.103c-20.625-20.379-53.865-20.18-74.245,0.445   c-20.379,20.625-20.181,53.866,0.444,74.245l41.895,41.394l-85.646,0.332l-1.604,0.031c-0.271,0.007-27.857,0.333-67.073-12.27   c-56.398-18.125-106.021-52.333-147.491-101.673c-18.657-22.197-51.774-25.066-73.969-6.41   c-22.196,18.655-25.066,51.772-6.411,73.969C134.331,343.34,283.218,349.533,307.634,349.533z"
       id="path12001" /><path
       d="M598.381,560.424h-71.104l42.251-41.747c20.625-20.379,20.824-53.619,0.445-74.244   c-20.38-20.625-53.62-20.824-74.245-0.445L364.249,573.9c-20.625,20.379-20.824,53.62-0.445,74.245l131.682,133.271   c10.271,10.395,23.806,15.601,37.348,15.601c13.33,0,26.667-5.047,36.897-15.155c20.625-20.379,20.824-53.62,0.445-74.245   l-41.689-42.192h70.381l0.47,0.036l1.108-0.056c2.728,0.005,32.121,0.245,71.957,13.553   c54.997,18.374,103.446,51.873,144.003,99.566c10.386,12.211,25.155,18.491,40.021,18.491c12.023,0,24.107-4.108,33.985-12.507   c22.088-18.783,24.768-51.917,5.983-74.005C770.111,561.999,615.311,560.149,598.381,560.424z"
       id="path12003" /></g><g
     id="g12007" /><g
     id="g12009" /><g
     id="g12011" /><g
     id="g12013" /><g
     id="g12015" /><g
     id="g12017" /><g
     id="g12019" /><g
     id="g12021" /><g
     id="g12023" /><g
     id="g12025" /><g
     id="g12027" /><g
     id="g12029" /><g
     id="g12031" /><g
     id="g12033" /><g
     id="g12035" /><path
     style="opacity:1;fill:#2d0505;fill-opacity:1;stroke-width:3.85127544"
     d="m 377.20039,477.82988 c -21.86645,-5.55439 -36.74764,-25.47133 -36.74764,-49.18292 0,-18.73308 7.0338,-30.81313 32.43915,-55.71194 11.81327,-11.57775 21.4787,-22.40946 21.4787,-24.07047 0,-1.66101 -28.16245,-3.03216 -62.58322,-3.047 C 259.34601,345.78632 227.5221,339.83497 172.40149,316.01099 125.32538,295.66397 83.011488,266.20976 41.356317,224.79196 13.346519,196.94178 5.5103506,186.71378 3.346736,175.18072 c -6.039624,-32.19396 17.83055,-60.41271 51.102973,-60.41271 16.279191,0 18.818919,1.64466 52.385501,33.92354 49.68642,47.78033 76.52127,65.04399 131.48489,84.58817 23.50001,8.35623 35.4631,9.85472 91.54164,11.46645 35.47988,1.01971 64.50886,0.48544 64.50886,-1.18726 0,-1.67271 -12.13151,-15.55257 -26.95892,-30.84415 -26.36586,-27.19122 -26.95893,-28.24399 -26.95893,-47.85483 0,-17.59981 1.57355,-21.62553 12.86732,-32.9193 14.97758,-14.97758 27.73956,-19.07208 47.81557,-15.34097 12.19629,2.26667 26.0999,14.34467 90.26427,78.41219 48.61407,48.54073 76.7682,79.54464 78.41216,86.34913 6.63008,27.44212 1.52221,34.9701 -78.36949,115.50143 -57.16429,57.62197 -78.86492,77.07091 -89.19612,79.94097 -7.50902,2.08606 -14.51931,3.60146 -15.57841,3.36756 -1.0591,-0.23388 -5.31953,-1.28737 -9.46766,-2.34106 z"
     id="path12587"
     inkscape:connector-curvature="0" /><path
     style="opacity:1;fill:#2d0505;fill-opacity:1;stroke-width:3.85127544"
     d="m 510.61654,787.77839 c -8.7841,-4.78458 -47.86329,-41.78895 -87.25944,-82.62661 L 352.00657,631.19054 V 611.01502 590.8395 l 75.90215,-76.24828 c 51.34353,-51.57767 80.08514,-77.62879 88.83036,-80.51497 36.98968,-12.2077 74.1395,22.68151 64.60424,60.67299 -1.42312,5.67018 -14.6779,22.77831 -29.45507,38.01806 l -26.86757,27.70865 58.8786,1.94857 c 87.61322,2.89952 147.78655,21.13571 215.32221,65.25576 39.19978,25.60864 92.48114,75.00818 101.57727,94.17689 13.34633,28.12532 -1.20464,60.9694 -31.43091,70.94496 -18.66709,6.16071 -37.91912,-1.45837 -56.88122,-22.51103 -40.54149,-45.01115 -107.79079,-86.51548 -160.08057,-98.79712 -15.50781,-3.64242 -43.83661,-5.90139 -74.44902,-5.93666 l -49.41573,-0.0569 25.31714,27.73932 c 26.2532,28.76492 32.1705,42.51157 27.48402,63.84896 -2.88979,13.15713 -18.60711,29.39219 -34.13439,35.2588 -15.09232,5.70227 -18.51993,5.27428 -36.59154,-4.56908 z"
     id="path12589"
     inkscape:connector-curvature="0" /><path
     style="opacity:1;fill:#2d0505;fill-opacity:1;stroke-width:3.85127544"
     d="m 368.66518,475.01965 c -20.44621,-8.89365 -31.28404,-32.64336 -26.50973,-58.09264 1.76996,-9.43469 10.12762,-21.62717 27.31125,-39.84273 13.61847,-14.43628 23.63764,-27.37097 22.26486,-28.74377 -1.37279,-1.37279 -25.17037,-2.54949 -52.88351,-2.61489 C 255.2623,345.52837 220.20725,338.48498 158.10644,309.41039 99.8007,282.11258 8.5091516,202.69876 3.2582687,174.70915 -2.4890635,144.07323 18.057781,118.86198 51.382646,115.65988 l 18.047839,-1.73417 37.805475,35.10899 c 45.19647,41.97282 74.93812,62.11747 114.03052,77.23528 40.07574,15.49808 70.60111,19.98669 126.86453,18.65479 l 48.11667,-1.13904 -27.89747,-30.07613 c -27.0098,-29.11916 -27.89746,-30.69774 -27.89746,-49.61184 0,-17.40995 1.49586,-20.94647 13.74711,-32.50088 15.83736,-14.93656 27.12778,-18.68796 45.73718,-15.19682 10.04706,1.88484 24.97063,13.76742 62.20276,49.52763 26.94141,25.87631 62.57553,62.19747 79.18692,80.71369 46.53265,51.86851 45.95727,53.54414 -52.12065,151.78241 -83.2248,83.36086 -92.06875,88.98062 -120.54089,76.59586 z"
     id="path12591"
     inkscape:connector-curvature="0" /><path
     style="opacity:1;fill:#2d0505;fill-opacity:1;stroke-width:3.85127544"
     d="m 515.03624,789.69771 c -13.4521,-7.42243 -35.64922,-28.39527 -112.00027,-105.82292 l -51.0294,-51.74895 v -21.22407 -21.22406 l 74.44128,-73.33617 c 40.9427,-40.3349 80.14741,-76.28693 87.12156,-79.8934 40.35565,-20.86872 88.20344,33.60737 61.19103,69.66776 -4.57746,6.11072 -17.95453,21.07557 -29.72682,33.25522 l -21.40417,22.14484 32.61528,0.0667 c 130.31354,0.26666 211.59029,31.36247 306.62009,117.31032 32.1516,29.07892 45.86099,52.96743 42.05138,73.27433 -5.04143,26.87327 -32.2004,46.30362 -57.86399,41.39771 -5.7357,-1.09645 -22.8525,-13.46208 -38.03735,-27.47917 C 757.10102,718.16432 724.73118,697.0202 675.51371,678.8824 649.8985,669.44259 639.88298,668.02719 587.02717,666.37742 l -59.60197,-1.86034 21.3655,23.0773 c 40.53774,43.78558 44.63382,71.58693 13.99078,94.95951 -17.37383,13.25167 -32.55808,15.52359 -47.74524,7.14382 z"
     id="path12593"
     inkscape:connector-curvature="0" /></svg>