<?xml version="1.0" encoding="UTF-8" standalone="no"?>
<!-- Generator: Adobe Illustrator 16.0.0, SVG Export Plug-In . SVG Version: 6.00 Build 0)  -->

<svg
   xmlns:dc="http://purl.org/dc/elements/1.1/"
   xmlns:cc="http://creativecommons.org/ns#"
   xmlns:rdf="http://www.w3.org/1999/02/22-rdf-syntax-ns#"
   xmlns:svg="http://www.w3.org/2000/svg"
   xmlns="http://www.w3.org/2000/svg"
   xmlns:sodipodi="http://sodipodi.sourceforge.net/DTD/sodipodi-0.dtd"
   xmlns:inkscape="http://www.inkscape.org/namespaces/inkscape"
   version="1.1"
   id="Capa_1"
   x="0px"
   y="0px"
   width="909.061px"
   height="909.061px"
   viewBox="0 0 909.061 909.061"
   style="enable-background:new 0 0 909.061 909.061;"
   xml:space="preserve"
   sodipodi:docname="044-goto.svg"
   inkscape:version="0.92.2 5c3e80d, 2017-08-06"><metadata
     id="metadata12750"><rdf:RDF><cc:Work
         rdf:about=""><dc:format>image/svg+xml</dc:format><dc:type
           rdf:resource="http://purl.org/dc/dcmitype/StillImage" /></cc:Work></rdf:RDF></metadata><defs
     id="defs12748" /><sodipodi:namedview
     pagecolor="#ffffff"
     bordercolor="#666666"
     borderopacity="1"
     objecttolerance="10"
     gridtolerance="10"
     guidetolerance="10"
     inkscape:pageopacity="0"
     inkscape:pageshadow="2"
     inkscape:window-width="957"
     inkscape:window-height="998"
     id="namedview12746"
     showgrid="false"
     inkscape:zoom="0.25960855"
     inkscape:cx="454.53049"
     inkscape:cy="454.53049"
     inkscape:window-x="0"
     inkscape:window-y="0"
     inkscape:window-maximized="0"
     inkscape:current-layer="Capa_1" /><g
     id="g12713"><path
       d="M0,454.53c0,28.996,23.505,52.5,52.5,52.5h538.473l-42.252,41.748c-20.625,20.379-20.824,53.619-0.445,74.244   c10.27,10.395,23.805,15.602,37.348,15.6c13.328,0,26.666-5.045,36.896-15.154L754,493.556c9.904-9.785,15.518-23.105,15.6-37.029   c0.084-13.923-5.367-27.311-15.154-37.214L622.762,286.04c-20.379-20.624-53.617-20.826-74.244-0.445   c-20.625,20.379-20.824,53.619-0.445,74.244l41.689,42.192H52.5C23.505,402.031,0,425.536,0,454.53z"
       id="path12709" /><path
       d="M856.561,215.72c-28.996,0-52.5,23.505-52.5,52.5v372.621c0,28.994,23.504,52.5,52.5,52.5c28.994,0,52.5-23.506,52.5-52.5   V268.22C909.061,239.225,885.555,215.72,856.561,215.72z"
       id="path12711" /></g><g
     id="g12715" /><g
     id="g12717" /><g
     id="g12719" /><g
     id="g12721" /><g
     id="g12723" /><g
     id="g12725" /><g
     id="g12727" /><g
     id="g12729" /><g
     id="g12731" /><g
     id="g12733" /><g
     id="g12735" /><g
     id="g12737" /><g
     id="g12739" /><g
     id="g12741" /><g
     id="g12743" /><path
     style="opacity:1;fill:#2d0505;fill-opacity:1;stroke-width:3.85195327"
     d="m 559.68881,628.68688 c -6.35572,-4.18277 -14.58927,-13.24455 -18.29678,-20.13728 -13.51438,-25.12502 -7.54613,-42.14146 27.06722,-77.17264 l 25.69052,-26.00069 H 319.67769 c -302.496883,0 -293.849786,0.66767 -308.793478,-23.84291 C 6.2300668,473.89965 3.1045819,462.03113 3.0959616,451.95874 3.0836354,437.54235 5.2216331,432.9947 18.036205,420.18013 L 32.990847,405.22549 H 313.32119 593.65152 l -23.13429,-24.092 c -25.87684,-26.94802 -35.87301,-43.53693 -35.85171,-59.4967 0.0193,-13.27752 11.81313,-33.29836 24.52512,-41.6276 13.00866,-8.52359 38.21881,-8.26189 51.85861,0.53834 6.13212,3.95636 42.76601,39.6839 81.40869,79.39453 51.83685,53.2695 70.98865,75.48971 73.04074,84.74297 5.92757,26.72887 -0.0809,35.48465 -74.18119,108.10209 -38.49858,37.72812 -75.19756,71.95588 -81.55329,76.06168 -14.81985,9.57361 -35.38327,9.50712 -50.07539,-0.1619 z"
     id="path13295"
     inkscape:connector-curvature="0" /><path
     style="opacity:1;fill:#2d0505;fill-opacity:1;stroke-width:3.85195327"
     d="m 830.76156,683.78446 c -5.56591,-3.45436 -13.36611,-11.64176 -17.33379,-18.19428 -6.80623,-11.24039 -7.21395,-23.27269 -7.21395,-212.8958 0,-196.99646 0.15771,-201.19776 7.95249,-211.85743 11.44719,-15.65448 33.60727,-25.72815 49.88093,-22.67519 17.95372,3.36814 35.5365,19.04778 40.54721,36.15843 2.79234,9.53535 3.75874,77.70106 2.95853,208.68459 -1.12164,183.59997 -1.59904,195.12956 -8.50131,205.31339 -14.34999,21.17249 -47.13264,28.59706 -68.29011,15.46629 z"
     id="path13297"
     inkscape:connector-curvature="0" /></svg>