<?xml version="1.0" encoding="UTF-8" standalone="no"?>
<!-- Generator: Adobe Illustrator 16.0.0, SVG Export Plug-In . SVG Version: 6.00 Build 0)  -->

<svg
   xmlns:dc="http://purl.org/dc/elements/1.1/"
   xmlns:cc="http://creativecommons.org/ns#"
   xmlns:rdf="http://www.w3.org/1999/02/22-rdf-syntax-ns#"
   xmlns:svg="http://www.w3.org/2000/svg"
   xmlns="http://www.w3.org/2000/svg"
   xmlns:sodipodi="http://sodipodi.sourceforge.net/DTD/sodipodi-0.dtd"
   xmlns:inkscape="http://www.inkscape.org/namespaces/inkscape"
   version="1.1"
   id="Capa_1"
   x="0px"
   y="0px"
   width="934.846px"
   height="934.846px"
   viewBox="0 0 934.846 934.846"
   style="enable-background:new 0 0 934.846 934.846;"
   xml:space="preserve"
   sodipodi:docname="045-orbit.svg"
   inkscape:version="0.92.2 5c3e80d, 2017-08-06"><metadata
     id="metadata13428"><rdf:RDF><cc:Work
         rdf:about=""><dc:format>image/svg+xml</dc:format><dc:type
           rdf:resource="http://purl.org/dc/dcmitype/StillImage" /></cc:Work></rdf:RDF></metadata><defs
     id="defs13426" /><sodipodi:namedview
     pagecolor="#ffffff"
     bordercolor="#666666"
     borderopacity="1"
     objecttolerance="10"
     gridtolerance="10"
     guidetolerance="10"
     inkscape:pageopacity="0"
     inkscape:pageshadow="2"
     inkscape:window-width="979"
     inkscape:window-height="839"
     id="namedview13424"
     showgrid="false"
     inkscape:zoom="0.25244799"
     inkscape:cx="467.423"
     inkscape:cy="467.423"
     inkscape:window-x="0"
     inkscape:window-y="0"
     inkscape:window-maximized="0"
     inkscape:current-layer="Capa_1" /><g
     id="g13391"><path
       d="M57.69,559.163c35.15-2.921,89.828-8.858,127.491-20.925c50.821-16.283,99.463-40.017,140.245-74.767   c39.894-33.993,72.403-75.456,108.373-113.338c44.713-47.091,95.163-84.977,159.719-98.006   c52.231-10.542,105.215-12.79,158.563-16.461l-42.604,43.118c-20.379,20.625-20.18,53.866,0.445,74.245   c10.232,10.11,23.567,15.155,36.898,15.155c13.541,0,27.077-5.207,37.347-15.6L915.85,219.314   c20.379-20.625,20.181-53.866-0.444-74.245L783.924,15.155c-20.625-20.379-53.865-20.18-74.245,0.445   c-20.379,20.625-20.18,53.866,0.445,74.245l41.107,40.618c-0.465,0.021-0.927,0.029-1.394,0.062   c-59.008,4.178-119.833,4.668-177.931,16.633c-116.232,23.938-191.961,103.705-264.025,191.489   c-38.822,47.292-94.123,79.66-151.673,98.601c-29.669,9.765-77.115,14.714-107.157,17.215   c-27.161,2.261-47.978,25.08-47.709,52.333l0.01,1.061C1.651,538.084,27.565,561.666,57.69,559.163z"
       id="path13387" /><path
       d="M877.155,375.683c-35.15,2.921-89.828,8.858-127.491,20.926c-50.821,16.282-99.463,40.016-140.245,74.766   c-39.894,33.992-72.403,75.456-108.373,113.338c-44.712,47.091-95.163,84.977-159.719,98.006   c-52.231,10.542-105.215,12.79-158.563,16.461l42.604-43.118c20.379-20.625,20.18-53.865-0.445-74.245   c-20.625-20.379-53.866-20.179-74.245,0.445L18.997,715.533c-20.379,20.625-20.18,53.866,0.445,74.245l131.48,129.912   c10.232,10.11,23.567,15.155,36.898,15.155c13.541,0,27.078-5.207,37.347-15.6c20.379-20.625,20.18-53.866-0.445-74.245   l-41.108-40.619c0.464-0.021,0.927-0.029,1.394-0.062c59.008-4.179,119.833-4.668,177.931-16.634   c116.233-23.938,191.963-103.705,264.025-191.488c38.822-47.292,94.123-79.66,151.673-98.602   c29.669-9.765,77.115-14.714,107.157-17.215c27.161-2.261,47.978-25.08,47.709-52.333l-0.01-1.061   C933.194,396.761,907.28,373.179,877.155,375.683z"
       id="path13389" /></g><g
     id="g13393" /><g
     id="g13395" /><g
     id="g13397" /><g
     id="g13399" /><g
     id="g13401" /><g
     id="g13403" /><g
     id="g13405" /><g
     id="g13407" /><g
     id="g13409" /><g
     id="g13411" /><g
     id="g13413" /><g
     id="g13415" /><g
     id="g13417" /><g
     id="g13419" /><g
     id="g13421" /><path
     style="opacity:1;fill:#2d0505;fill-opacity:1;stroke-width:3.96121192"
     d="M 27.580218,549.95331 C -2.564096,533.59719 -2.5532195,479.13207 27.597478,463.54454 33.551933,460.46617 55.35794,455.90186 76.055272,453.40162 180.54406,440.77954 244.86778,409.79212 304.83269,343.19007 399.41498,238.13905 435.96805,206.05166 493.08623,177.93531 c 56.07274,-27.60173 97.26799,-35.73928 222.18869,-43.8903 l 39.09606,-2.551 -23.79401,-24.35234 C 702.13535,78.032646 697.96554,70.596322 697.96554,48.98332 c 0,-13.427579 2.4653,-18.966669 13.23464,-29.736011 7.27905,-7.279046 18.13578,-14.464745 24.12612,-15.968221 24.30275,-6.0996064 36.55886,2.6148016 116.1362,82.575981 75.00059,75.362361 76.25333,76.897131 76.25333,93.421681 0,9.2403 -2.53597,21.61402 -5.6355,27.49716 -9.47981,17.99339 -149.65288,154.39699 -161.75173,157.40196 -30.63122,7.60783 -62.36306,-15.84526 -62.36306,-46.09269 0,-21.04962 4.22499,-28.50878 33.12749,-58.4863 l 24.31008,-25.21426 -45.55394,2.61365 c -69.09886,3.96454 -125.25003,13.32697 -157.70313,26.29479 -52.82874,21.10967 -84.34739,46.47967 -157.88298,127.08318 -92.88681,101.8147 -155.50613,139.00335 -266.11537,158.04172 -53.124595,9.14399 -85.632625,9.64092 -100.567472,1.53735 z"
     id="path13973"
     inkscape:connector-curvature="0" /><path
     style="opacity:1;fill:#2d0505;fill-opacity:1;stroke-width:3.96121192"
     d="M 156.86414,921.0457 C 148.36726,914.7627 111.75518,879.55743 75.503955,842.81177 5.2958111,771.64598 -0.1114382,763.13265 8.4393711,737.22344 14.24974,719.61785 160.65179,573.70572 176.43473,569.79026 c 24.38713,-6.05 54.42981,12.07763 60.57165,36.5487 5.02483,20.02049 -2.3171,36.61667 -28.45718,64.32653 -14.04766,14.89127 -25.54121,27.79807 -25.54121,28.68179 0,0.88372 18.27109,0.31852 40.60242,-1.25596 152.99992,-10.78742 197.39907,-29.14633 280.25574,-115.88483 88.587,-92.73731 117.0354,-119.46191 147.10246,-138.18904 58.17107,-36.23156 132.04502,-58.90324 209.62385,-64.3329 29.25089,-2.04724 35.04607,-1.33323 46.13469,5.68411 29.04067,18.37812 32.73399,55.49283 7.79634,78.34649 -10.88585,9.97612 -18.42233,13.06733 -36.88562,15.12919 -121.18064,13.53262 -182.77733,42.11929 -250.00722,116.02695 -95.0717,104.51494 -123.95063,130.12805 -179.41691,159.12739 -54.01873,28.24251 -107.63038,39.45234 -220.64212,46.13479 -24.50999,1.44929 -44.56363,3.80352 -44.56363,5.23165 0,1.42814 9.94132,12.33973 22.09183,24.24797 34.74111,34.04844 40.90631,52.80818 25.60308,77.9063 -16.20659,26.57969 -48.24799,32.44926 -73.83876,13.52631 z"
     id="path13975"
     inkscape:connector-curvature="0" /></svg>