<?xml version="1.0" encoding="UTF-8" standalone="no"?>
<svg
   xmlns:dc="http://purl.org/dc/elements/1.1/"
   xmlns:cc="http://creativecommons.org/ns#"
   xmlns:rdf="http://www.w3.org/1999/02/22-rdf-syntax-ns#"
   xmlns:svg="http://www.w3.org/2000/svg"
   xmlns="http://www.w3.org/2000/svg"
   xmlns:sodipodi="http://sodipodi.sourceforge.net/DTD/sodipodi-0.dtd"
   xmlns:inkscape="http://www.inkscape.org/namespaces/inkscape"
   version="1.1"
   id="Capa_1"
   x="0px"
   y="0px"
   viewBox="0 0 52.519 52.519"
   style="enable-background:new 0 0 52.519 52.519;"
   xml:space="preserve"
   width="512"
   height="512"
   class=""
   sodipodi:docname="orbit_backward.svg"
   inkscape:version="0.92.2 5c3e80d, 2017-08-06"><metadata
     id="metadata14050"><rdf:RDF><cc:Work
         rdf:about=""><dc:format>image/svg+xml</dc:format><dc:type
           rdf:resource="http://purl.org/dc/dcmitype/StillImage" /><dc:title></dc:title></cc:Work></rdf:RDF></metadata><defs
     id="defs14048" /><sodipodi:namedview
     pagecolor="#ffffff"
     bordercolor="#666666"
     borderopacity="1"
     objecttolerance="10"
     gridtolerance="10"
     guidetolerance="10"
     inkscape:pageopacity="0"
     inkscape:pageshadow="2"
     inkscape:window-width="977"
     inkscape:window-height="914"
     id="namedview14046"
     showgrid="false"
     inkscape:zoom="0.4609375"
     inkscape:cx="256"
     inkscape:cy="256"
     inkscape:window-x="0"
     inkscape:window-y="0"
     inkscape:window-maximized="0"
     inkscape:current-layer="Capa_1" /><g
     id="g14043"><g
       id="g14041"><path
         style="fill:#242424"
         d="M16.049,31.137H4.001l20.08,19.971l20.08-19.971H32.113c0,0-4.292-17.735,16.064-29.849   c0,0-15.536-3.02-26.794,10.51C21.382,11.797,15.651,17.927,16.049,31.137z"
         data-original="#26B99A"
         class="active-path"
         data-old_color="#2D2F2E"
         id="path14037" /><path
         style="fill:#242424"
         d="M24.081,52.519L1.577,30.137H15.03c-0.092-12.759,5.383-18.767,5.622-19.022   C28.691,1.45,38.933,0,44.318,0c2.446,0,3.985,0.294,4.049,0.307l2.574,0.5l-2.253,1.341C31.371,12.453,32.394,26.663,32.94,30.137   h13.645L24.081,52.519z M6.425,32.137l17.656,17.562l17.656-17.562H31.326l-0.185-0.765c-0.043-0.177-3.881-17.082,14.041-29.358   c-4.784-0.15-15.02,0.795-23.031,10.423c-0.091,0.1-5.481,6.089-5.103,18.67l0.03,1.03H6.425z"
         data-original="#26B99A"
         class="active-path"
         data-old_color="#2D2F2E"
         id="path14039" /></g></g><path
     style="opacity:1;fill:#2d0505;fill-opacity:1;stroke-width:2.16949153"
     d="M 126.31535,402.18207 17.674761,293.74915 h 64.398245 64.398244 l 1.47817,-22.23729 C 153.59861,186.52663 177.07221,130.53612 227.08443,82.754736 267.40447,44.233194 315.00811,19.387829 372.32215,6.9520456 398.22464,1.3318216 451.51325,0.3239662 477.36218,4.9654085 L 494.14129,7.9782749 473.0232,20.847288 c -31.51887,19.207064 -51.25185,34.652288 -75.3694,58.992517 -41.96916,42.356625 -66.61133,88.209615 -75.83709,141.114035 -3.48609,19.99082 -4.50276,65.42904 -1.56735,70.05049 1.27382,2.00546 17.90249,2.82355 66.14589,3.25424 l 64.44429,0.57533 -107.94179,107.89055 -107.94182,107.89052 z"
     id="path14595"
     inkscape:connector-curvature="0"
     transform="scale(0.10257617)" /></svg>