<?xml version="1.0" encoding="UTF-8" standalone="no"?>
<!-- Generator: Adobe Illustrator 16.0.0, SVG Export Plug-In . SVG Version: 6.00 Build 0)  -->

<svg
   xmlns:dc="http://purl.org/dc/elements/1.1/"
   xmlns:cc="http://creativecommons.org/ns#"
   xmlns:rdf="http://www.w3.org/1999/02/22-rdf-syntax-ns#"
   xmlns:svg="http://www.w3.org/2000/svg"
   xmlns="http://www.w3.org/2000/svg"
   xmlns:sodipodi="http://sodipodi.sourceforge.net/DTD/sodipodi-0.dtd"
   xmlns:inkscape="http://www.inkscape.org/namespaces/inkscape"
   version="1.1"
   id="Capa_1"
   x="0px"
   y="0px"
   width="512"
   height="512"
   viewBox="0 0 512 512"
   xml:space="preserve"
   sodipodi:docname="role_gather.svg"
   inkscape:version="0.92.2 5c3e80d, 2017-08-06"><metadata
     id="metadata24925"><rdf:RDF><cc:Work
         rdf:about=""><dc:format>image/svg+xml</dc:format><dc:type
           rdf:resource="http://purl.org/dc/dcmitype/StillImage" /><dc:title /></cc:Work></rdf:RDF></metadata><defs
     id="defs24923" /><sodipodi:namedview
     pagecolor="#ffffff"
     bordercolor="#666666"
     borderopacity="1"
     objecttolerance="10"
     gridtolerance="10"
     guidetolerance="10"
     inkscape:pageopacity="0"
     inkscape:pageshadow="2"
     inkscape:window-width="1333"
     inkscape:window-height="1181"
     id="namedview24921"
     showgrid="false"
     inkscape:zoom="1"
     inkscape:cx="85.55844"
     inkscape:cy="376.20305"
     inkscape:window-x="0"
     inkscape:window-y="0"
     inkscape:window-maximized="0"
     inkscape:current-layer="layer7" /><g
     inkscape:groupmode="layer"
     id="layer8"
     inkscape:label="background"
     style="display:inline"
     transform="translate(0,-436.34601)"><rect
       style="opacity:1;fill:#faf9f9;fill-opacity:1;stroke:#094074;stroke-width:0;stroke-miterlimit:4;stroke-dasharray:none;stroke-opacity:1"
       id="rect25515"
       width="512"
       height="512"
       x="2.0000005"
       y="438.34601" /></g><g
     inkscape:groupmode="layer"
     id="layer7"
     inkscape:label="Layer 1"
     style="display:inline"
     transform="translate(0,-436.34601)"><g
       id="g24888"
       transform="matrix(0.27,0,0,0.27,127.97329,609.47583)"
       style="fill:#094074;fill-opacity:0.94117647"><g
         id="g24886"
         style="fill:#094074;fill-opacity:0.94117647"><path
           d="m 457.701,939.221 c 0,0 10e-4,0 10e-4,0.002 l 16.472,9.123 16.472,-9.123 v -0.002 L 737.597,802.45 895.767,714.848 v -20.037 -480.02 -21.83 l -19.85,-9.085 -47.105,-21.56 L 474.173,0 119.534,162.316 l -47.105,21.56 -19.85,9.085 v 21.83 480.02 20.037 L 210.75,802.45 Z M 586.337,328.471 474.173,390.592 362.01,328.471 161.968,217.678 474.173,74.784 786.378,217.678 Z m -78.164,523.31 V 449.494 L 827.767,272.489 v 402.287 z m -68,-402.287 V 851.782 L 120.58,674.775 V 272.488 Z"
           id="path24884"
           inkscape:connector-curvature="0"
           style="fill:#2d0505;fill-opacity:1"
           inkscape:label="path24884"
           sodipodi:nodetypes="cccccccccccccccccccccccccccccccccccccc" /><path
           style="opacity:1;fill:#7f0812;fill-opacity:1;stroke:#094074;stroke-width:0;stroke-miterlimit:4;stroke-dasharray:none;stroke-opacity:1"
           d="M 342.46152,365.96417 474.173,305.68077 605.88448,365.96417 474.173,438.91226 Z"
           id="path25525"
           inkscape:connector-curvature="0"
           transform="matrix(2.3703704,0,0,2.3703704,-649.79264,-649.79264)"
           sodipodi:nodetypes="ccccc" /><path
           style="opacity:1;fill:#7f0812;fill-opacity:1;stroke:#094074;stroke-width:0;stroke-miterlimit:4;stroke-dasharray:none;stroke-opacity:1"
           d="M 325.00095,558.80197 V 389.08714 l 134.8283,74.67441 v 169.71524 z"
           id="path25527"
           inkscape:connector-curvature="0"
           transform="matrix(2.3703704,0,0,2.3703704,-649.79264,-649.79264)"
           sodipodi:nodetypes="ccccc" /><path
           style="opacity:1;fill:#7f0812;fill-opacity:1;stroke:#094074;stroke-width:0;stroke-miterlimit:4;stroke-dasharray:none;stroke-opacity:1"
           d="M 488.51675,463.76155 623.34547,389.08756 V 558.80239 L 488.51675,633.47637 Z"
           id="path25529"
           inkscape:connector-curvature="0"
           transform="matrix(2.3703704,0,0,2.3703704,-649.79264,-649.79264)"
           sodipodi:nodetypes="ccccc" /></g></g><path
       inkscape:connector-curvature="0"
       id="path26706"
       d="m 256.01047,519.16279 c -5.28707,0.009 -9.26515,4.30007 -9.26515,6.95465 v 119.002 l -49.66339,-49.89799 c -3.61379,-3.63087 -9.47943,-3.63087 -13.09322,0 -3.6138,3.63087 -3.6138,9.52422 0,13.15508 l 65.49331,65.80271 2.97236,1.98639 3.4041,0.6842 0.13101,0.0265 h 0.10464 l 3.43047,-0.71069 3.02469,-2.01246 65.46693,-65.77621 c 3.6138,-3.63088 3.60062,-9.53747 0,-13.15509 -3.60061,-3.61763 -9.47942,-3.63087 -13.09322,0 l -49.66281,49.89759 V 526.11833 c 0,-2.65482 -3.96262,-6.96426 -9.24972,-6.95554 z"
       style="fill:#e52d00;fill-opacity:1;stroke-width:0.58398783"
       sodipodi:nodetypes="cscssscccccccssscsc" /></g></svg>