<?xml version="1.0" encoding="UTF-8" standalone="no"?>
<!-- Generator: Adobe Illustrator 19.0.0, SVG Export Plug-In . SVG Version: 6.00 Build 0)  -->

<svg
   xmlns:dc="http://purl.org/dc/elements/1.1/"
   xmlns:cc="http://creativecommons.org/ns#"
   xmlns:rdf="http://www.w3.org/1999/02/22-rdf-syntax-ns#"
   xmlns:svg="http://www.w3.org/2000/svg"
   xmlns="http://www.w3.org/2000/svg"
   xmlns:sodipodi="http://sodipodi.sourceforge.net/DTD/sodipodi-0.dtd"
   xmlns:inkscape="http://www.inkscape.org/namespaces/inkscape"
   version="1.1"
   id="Capa_1"
   x="0px"
   y="0px"
   viewBox="0 0 508.52 508.52"
   style="enable-background:new 0 0 508.52 508.52;"
   xml:space="preserve"
   sodipodi:docname="035-sign.svg"
   inkscape:version="0.92.2 5c3e80d, 2017-08-06"><metadata
     id="metadata6596"><rdf:RDF><cc:Work
         rdf:about=""><dc:format>image/svg+xml</dc:format><dc:type
           rdf:resource="http://purl.org/dc/dcmitype/StillImage" /></cc:Work></rdf:RDF></metadata><defs
     id="defs6594" /><sodipodi:namedview
     pagecolor="#ffffff"
     bordercolor="#666666"
     borderopacity="1"
     objecttolerance="10"
     gridtolerance="10"
     guidetolerance="10"
     inkscape:pageopacity="0"
     inkscape:pageshadow="2"
     inkscape:window-width="1035"
     inkscape:window-height="884"
     id="namedview6592"
     showgrid="false"
     inkscape:zoom="0.46409188"
     inkscape:cx="254.25999"
     inkscape:cy="254.25999"
     inkscape:window-x="0"
     inkscape:window-y="0"
     inkscape:window-maximized="0"
     inkscape:current-layer="Capa_1" /><g
     id="g6559"
     style="fill:#352e09;fill-opacity:1"><g
       id="g6557"
       style="fill:#352e09;fill-opacity:1"><path
         style="fill:#352e09;fill-opacity:1"
         d="M254.26,0C113.845,0,0,113.845,0,254.26s113.845,254.26,254.26,254.26    s254.26-113.845,254.26-254.26S394.675,0,254.26,0z M254.26,444.955c-105.136,0-190.695-85.527-190.695-190.695    c0-41.127,13.222-79.138,35.437-110.317l265.543,265.574C333.335,431.733,295.386,444.955,254.26,444.955z M409.517,364.577    L143.943,99.002c31.179-22.216,69.19-35.437,110.317-35.437c105.168,0,190.695,85.558,190.695,190.695    C444.955,295.386,431.733,333.398,409.517,364.577z"
         id="path6555" /></g></g><g
     id="g6561" /><g
     id="g6563" /><g
     id="g6565" /><g
     id="g6567" /><g
     id="g6569" /><g
     id="g6571" /><g
     id="g6573" /><g
     id="g6575" /><g
     id="g6577" /><g
     id="g6579" /><g
     id="g6581" /><g
     id="g6583" /><g
     id="g6585" /><g
     id="g6587" /><g
     id="g6589" /></svg>