<?xml version="1.0" encoding="UTF-8" standalone="no"?>
<!-- Generator: Adobe Illustrator 16.0.0, SVG Export Plug-In . SVG Version: 6.00 Build 0)  -->

<svg
   xmlns:dc="http://purl.org/dc/elements/1.1/"
   xmlns:cc="http://creativecommons.org/ns#"
   xmlns:rdf="http://www.w3.org/1999/02/22-rdf-syntax-ns#"
   xmlns:svg="http://www.w3.org/2000/svg"
   xmlns="http://www.w3.org/2000/svg"
   xmlns:sodipodi="http://sodipodi.sourceforge.net/DTD/sodipodi-0.dtd"
   xmlns:inkscape="http://www.inkscape.org/namespaces/inkscape"
   version="1.1"
   id="Capa_1"
   x="0px"
   y="0px"
   width="908.901px"
   height="908.901px"
   viewBox="0 0 908.901 908.901"
   style="enable-background:new 0 0 908.901 908.901;"
   xml:space="preserve"
   sodipodi:docname="043-connect.svg"
   inkscape:version="0.92.2 5c3e80d, 2017-08-06"><metadata
     id="metadata7266"><rdf:RDF><cc:Work
         rdf:about=""><dc:format>image/svg+xml</dc:format><dc:type
           rdf:resource="http://purl.org/dc/dcmitype/StillImage" /></cc:Work></rdf:RDF></metadata><defs
     id="defs7264" /><sodipodi:namedview
     pagecolor="#ffffff"
     bordercolor="#666666"
     borderopacity="1"
     objecttolerance="10"
     gridtolerance="10"
     guidetolerance="10"
     inkscape:pageopacity="0"
     inkscape:pageshadow="2"
     inkscape:window-width="986"
     inkscape:window-height="1018"
     id="namedview7262"
     showgrid="false"
     inkscape:zoom="0.25965424"
     inkscape:cx="454.4505"
     inkscape:cy="454.4505"
     inkscape:window-x="0"
     inkscape:window-y="0"
     inkscape:window-maximized="0"
     inkscape:current-layer="Capa_1" /><g
     id="g7229"><path
       d="M307.634,349.533c0.826,0,1.51-0.007,2.045-0.016L394,349.19l-42.036,42.542c-20.379,20.625-20.18,53.866,0.445,74.245   c10.231,10.109,23.566,15.155,36.897,15.155c13.541,0,27.078-5.207,37.347-15.601l131.684-133.271   c20.379-20.625,20.18-53.866-0.445-74.245L426.412,128.103c-20.625-20.379-53.865-20.18-74.245,0.445   c-20.379,20.625-20.181,53.866,0.444,74.245l41.895,41.394l-85.646,0.332l-1.604,0.031c-0.271,0.007-27.857,0.333-67.073-12.27   c-56.398-18.125-106.021-52.333-147.491-101.673c-18.657-22.197-51.774-25.066-73.969-6.41   c-22.196,18.655-25.066,51.772-6.411,73.969C134.331,343.34,283.218,349.533,307.634,349.533z"
       id="path7225" /><path
       d="M598.381,560.424h-71.104l42.251-41.747c20.625-20.379,20.824-53.619,0.445-74.244   c-20.38-20.625-53.62-20.824-74.245-0.445L364.249,573.9c-20.625,20.379-20.824,53.62-0.445,74.245l131.682,133.271   c10.271,10.395,23.806,15.601,37.348,15.601c13.33,0,26.667-5.047,36.897-15.155c20.625-20.379,20.824-53.62,0.445-74.245   l-41.689-42.192h70.381l0.47,0.036l1.108-0.056c2.728,0.005,32.121,0.245,71.957,13.553   c54.997,18.374,103.446,51.873,144.003,99.566c10.386,12.211,25.155,18.491,40.021,18.491c12.023,0,24.107-4.108,33.985-12.507   c22.088-18.783,24.768-51.917,5.983-74.005C770.111,561.999,615.311,560.149,598.381,560.424z"
       id="path7227" /></g><g
     id="g7231" /><g
     id="g7233" /><g
     id="g7235" /><g
     id="g7237" /><g
     id="g7239" /><g
     id="g7241" /><g
     id="g7243" /><g
     id="g7245" /><g
     id="g7247" /><g
     id="g7249" /><g
     id="g7251" /><g
     id="g7253" /><g
     id="g7255" /><g
     id="g7257" /><g
     id="g7259" /><path
     style="opacity:1;fill:#352e09;fill-opacity:1;stroke-width:3.85127544"
     d="m 363.24676,471.4862 c -5.89164,-3.65049 -14.3523,-14.15558 -18.80146,-23.34466 -11.18663,-23.10435 -6.05221,-37.65158 25.55584,-72.4067 l 25.00415,-27.49371 -68.29235,-1.84047 C 245.98657,344.2251 217.85589,337.96913 157.74048,308.823 90.191236,276.07268 9.7571216,206.78571 4.0652003,176.44516 c -3.76623041,-20.07573 1.214435,-35.4563 15.5607847,-48.05257 26.688117,-23.43247 50.532122,-18.61486 83.573235,16.88572 43.19991,46.41557 108.52008,84.23462 165.65001,95.90801 30.74622,6.2824 126.29163,8.60185 126.29163,3.06585 0,-1.64984 -11.31462,-14.21376 -25.14358,-27.9198 -31.2409,-30.9632 -36.54581,-45.76098 -25.42098,-70.9105 11.75307,-26.56977 43.11045,-37.30217 69.04937,-23.63289 5.71988,3.01425 42.75444,38.109 82.29906,77.98833 76.55496,77.20296 82.15067,85.69931 72.74112,110.44831 -4.77604,12.56192 -134.79949,149.15774 -152.79754,160.52109 -14.7661,9.32279 -38.23635,9.65262 -52.62155,0.73949 z"
     id="path7811"
     inkscape:connector-curvature="0" /><path
     style="opacity:1;fill:#352e09;fill-opacity:1;stroke-width:3.85127544"
     d="m 434.72492,716.16312 c -84.03236,-83.66897 -89.60657,-91.74162 -81.90085,-118.60989 2.70433,-9.42945 22.28747,-31.84229 68.30652,-78.17658 77.98716,-78.52139 89.04986,-87.26857 110.34557,-87.24915 28.52237,0.026 52.41951,23.25395 52.35746,50.8913 -0.0293,13.05752 -14.74177,34.60957 -37.5302,54.9774 -11.12056,9.93933 -20.2192,19.46587 -20.2192,21.17008 0,1.70422 28.16246,3.88533 62.58323,4.84692 75.91241,2.1207 105.31967,9.06652 166.56766,39.3423 50.08233,24.75643 82.95116,48.85841 120.41352,88.29654 30.88449,32.51334 36.36801,46.77821 27.22066,70.81211 -7.26486,19.0877 -26.48765,31.66884 -48.387,31.66884 -16.17833,0 -18.84845,-1.70353 -50.70312,-32.34804 C 729.8708,690.68433 664.15418,663.18963 568.121,663.18963 h -43.016 l 27.23379,28.6701 c 30.67652,32.29439 36.1557,46.60997 27.02335,70.60442 -7.32843,19.2548 -26.46526,31.66884 -48.81903,31.66884 h -17.50968 z"
     id="path7813"
     inkscape:connector-curvature="0" /></svg>