<?xml version="1.0" encoding="UTF-8" standalone="no"?>
<!-- Generator: Adobe Illustrator 16.0.0, SVG Export Plug-In . SVG Version: 6.00 Build 0)  -->

<svg
   xmlns:dc="http://purl.org/dc/elements/1.1/"
   xmlns:cc="http://creativecommons.org/ns#"
   xmlns:rdf="http://www.w3.org/1999/02/22-rdf-syntax-ns#"
   xmlns:svg="http://www.w3.org/2000/svg"
   xmlns="http://www.w3.org/2000/svg"
   xmlns:sodipodi="http://sodipodi.sourceforge.net/DTD/sodipodi-0.dtd"
   xmlns:inkscape="http://www.inkscape.org/namespaces/inkscape"
   version="1.1"
   id="Capa_1"
   x="0px"
   y="0px"
   width="909.061px"
   height="909.061px"
   viewBox="0 0 909.061 909.061"
   style="enable-background:new 0 0 909.061 909.061;"
   xml:space="preserve"
   sodipodi:docname="044-goto.svg"
   inkscape:version="0.92.2 5c3e80d, 2017-08-06"><metadata
     id="metadata8596"><rdf:RDF><cc:Work
         rdf:about=""><dc:format>image/svg+xml</dc:format><dc:type
           rdf:resource="http://purl.org/dc/dcmitype/StillImage" /></cc:Work></rdf:RDF></metadata><defs
     id="defs8594" /><sodipodi:namedview
     pagecolor="#ffffff"
     bordercolor="#666666"
     borderopacity="1"
     objecttolerance="10"
     gridtolerance="10"
     guidetolerance="10"
     inkscape:pageopacity="0"
     inkscape:pageshadow="2"
     inkscape:window-width="1072"
     inkscape:window-height="1050"
     id="namedview8592"
     showgrid="false"
     inkscape:zoom="0.25960855"
     inkscape:cx="454.53049"
     inkscape:cy="454.53049"
     inkscape:window-x="0"
     inkscape:window-y="0"
     inkscape:window-maximized="0"
     inkscape:current-layer="Capa_1" /><g
     id="g8559"><path
       d="M0,454.53c0,28.996,23.505,52.5,52.5,52.5h538.473l-42.252,41.748c-20.625,20.379-20.824,53.619-0.445,74.244   c10.27,10.395,23.805,15.602,37.348,15.6c13.328,0,26.666-5.045,36.896-15.154L754,493.556c9.904-9.785,15.518-23.105,15.6-37.029   c0.084-13.923-5.367-27.311-15.154-37.214L622.762,286.04c-20.379-20.624-53.617-20.826-74.244-0.445   c-20.625,20.379-20.824,53.619-0.445,74.244l41.689,42.192H52.5C23.505,402.031,0,425.536,0,454.53z"
       id="path8555" /><path
       d="M856.561,215.72c-28.996,0-52.5,23.505-52.5,52.5v372.621c0,28.994,23.504,52.5,52.5,52.5c28.994,0,52.5-23.506,52.5-52.5   V268.22C909.061,239.225,885.555,215.72,856.561,215.72z"
       id="path8557" /></g><g
     id="g8561" /><g
     id="g8563" /><g
     id="g8565" /><g
     id="g8567" /><g
     id="g8569" /><g
     id="g8571" /><g
     id="g8573" /><g
     id="g8575" /><g
     id="g8577" /><g
     id="g8579" /><g
     id="g8581" /><g
     id="g8583" /><g
     id="g8585" /><g
     id="g8587" /><g
     id="g8589" /><path
     style="opacity:1;fill:#352e09;fill-opacity:1;stroke-width:3.85195327"
     d="m 565.54351,631.13656 c -16.34083,-8.20992 -30.89239,-28.97781 -30.89239,-44.08942 0,-16.26746 8.03109,-29.09239 34.4994,-55.09239 l 23.52804,-23.11172 -276.50173,-1.92598 C 53.985641,505.09076 39.054219,504.61517 27.678369,497.72806 -6.5958868,476.9779 -4.6139405,426.31121 31.135604,409.34694 43.404318,403.52505 70.755428,402.91431 319.21186,402.91431 H 593.73237 L 566.62999,374.9635 c -28.34513,-29.23245 -34.76919,-43.02295 -30.05016,-64.50857 3.26148,-14.84934 21.72898,-33.31684 36.57834,-36.57831 25.48155,-5.59669 33.58206,-0.21236 103.49778,68.79395 83.06657,81.98614 89.11236,89.82129 89.11236,115.48709 v 19.41987 l -73.93797,74.29246 c -87.99556,88.4174 -96.92173,94.0201 -126.28683,79.26657 z"
     id="path9141"
     inkscape:connector-curvature="0" /><path
     style="opacity:1;fill:#352e09;fill-opacity:1;stroke-width:3.85195327"
     d="m 832.4238,684.27639 c -27.21132,-16.59179 -26.08854,-7.52379 -27.30967,-220.56317 -0.69826,-121.81961 0.33389,-197.17663 2.82753,-206.43731 12.30366,-45.69229 72.18417,-52.63218 92.47475,-10.71742 7.6089,15.71789 7.87397,22.74569 7.86819,208.61036 -0.007,214.41234 0.53127,209.79723 -26.56434,227.89829 -16.04158,10.71645 -33.02109,11.133 -49.29646,1.20925 z"
     id="path9143"
     inkscape:connector-curvature="0" /></svg>