<?xml version="1.0" encoding="UTF-8" standalone="no"?>
<!-- Generator: Adobe Illustrator 16.0.0, SVG Export Plug-In . SVG Version: 6.00 Build 0)  -->

<svg
   xmlns:dc="http://purl.org/dc/elements/1.1/"
   xmlns:cc="http://creativecommons.org/ns#"
   xmlns:rdf="http://www.w3.org/1999/02/22-rdf-syntax-ns#"
   xmlns:svg="http://www.w3.org/2000/svg"
   xmlns="http://www.w3.org/2000/svg"
   xmlns:sodipodi="http://sodipodi.sourceforge.net/DTD/sodipodi-0.dtd"
   xmlns:inkscape="http://www.inkscape.org/namespaces/inkscape"
   version="1.1"
   id="Capa_1"
   x="0px"
   y="0px"
   width="934.846px"
   height="934.846px"
   viewBox="0 0 934.846 934.846"
   style="enable-background:new 0 0 934.846 934.846;"
   xml:space="preserve"
   sodipodi:docname="045-orbit.svg"
   inkscape:version="0.92.2 5c3e80d, 2017-08-06"><metadata
     id="metadata9270"><rdf:RDF><cc:Work
         rdf:about=""><dc:format>image/svg+xml</dc:format><dc:type
           rdf:resource="http://purl.org/dc/dcmitype/StillImage" /></cc:Work></rdf:RDF></metadata><defs
     id="defs9268" /><sodipodi:namedview
     pagecolor="#ffffff"
     bordercolor="#666666"
     borderopacity="1"
     objecttolerance="10"
     gridtolerance="10"
     guidetolerance="10"
     inkscape:pageopacity="0"
     inkscape:pageshadow="2"
     inkscape:window-width="1021"
     inkscape:window-height="948"
     id="namedview9266"
     showgrid="false"
     inkscape:zoom="0.25244799"
     inkscape:cx="467.423"
     inkscape:cy="467.423"
     inkscape:window-x="0"
     inkscape:window-y="0"
     inkscape:window-maximized="0"
     inkscape:current-layer="Capa_1" /><g
     id="g9233"><path
       d="M57.69,559.163c35.15-2.921,89.828-8.858,127.491-20.925c50.821-16.283,99.463-40.017,140.245-74.767   c39.894-33.993,72.403-75.456,108.373-113.338c44.713-47.091,95.163-84.977,159.719-98.006   c52.231-10.542,105.215-12.79,158.563-16.461l-42.604,43.118c-20.379,20.625-20.18,53.866,0.445,74.245   c10.232,10.11,23.567,15.155,36.898,15.155c13.541,0,27.077-5.207,37.347-15.6L915.85,219.314   c20.379-20.625,20.181-53.866-0.444-74.245L783.924,15.155c-20.625-20.379-53.865-20.18-74.245,0.445   c-20.379,20.625-20.18,53.866,0.445,74.245l41.107,40.618c-0.465,0.021-0.927,0.029-1.394,0.062   c-59.008,4.178-119.833,4.668-177.931,16.633c-116.232,23.938-191.961,103.705-264.025,191.489   c-38.822,47.292-94.123,79.66-151.673,98.601c-29.669,9.765-77.115,14.714-107.157,17.215   c-27.161,2.261-47.978,25.08-47.709,52.333l0.01,1.061C1.651,538.084,27.565,561.666,57.69,559.163z"
       id="path9229" /><path
       d="M877.155,375.683c-35.15,2.921-89.828,8.858-127.491,20.926c-50.821,16.282-99.463,40.016-140.245,74.766   c-39.894,33.992-72.403,75.456-108.373,113.338c-44.712,47.091-95.163,84.977-159.719,98.006   c-52.231,10.542-105.215,12.79-158.563,16.461l42.604-43.118c20.379-20.625,20.18-53.865-0.445-74.245   c-20.625-20.379-53.866-20.179-74.245,0.445L18.997,715.533c-20.379,20.625-20.18,53.866,0.445,74.245l131.48,129.912   c10.232,10.11,23.567,15.155,36.898,15.155c13.541,0,27.078-5.207,37.347-15.6c20.379-20.625,20.18-53.866-0.445-74.245   l-41.108-40.619c0.464-0.021,0.927-0.029,1.394-0.062c59.008-4.179,119.833-4.668,177.931-16.634   c116.233-23.938,191.963-103.705,264.025-191.488c38.822-47.292,94.123-79.66,151.673-98.602   c29.669-9.765,77.115-14.714,107.157-17.215c27.161-2.261,47.978-25.08,47.709-52.333l-0.01-1.061   C933.194,396.761,907.28,373.179,877.155,375.683z"
       id="path9231" /></g><g
     id="g9235" /><g
     id="g9237" /><g
     id="g9239" /><g
     id="g9241" /><g
     id="g9243" /><g
     id="g9245" /><g
     id="g9247" /><g
     id="g9249" /><g
     id="g9251" /><g
     id="g9253" /><g
     id="g9255" /><g
     id="g9257" /><g
     id="g9259" /><g
     id="g9261" /><g
     id="g9263" /><path
     style="opacity:1;fill:#352e09;fill-opacity:1;stroke-width:3.96121192"
     d="M 39.346377,554.76285 C 25.296629,550.9345 7.6299457,532.17979 3.8366825,517.06626 0.19866111,502.57119 8.8858983,477.82435 20.941144,468.34169 c 12.08395,-9.50525 12.071327,-9.5022 73.581366,-17.80743 99.7212,-13.4646 158.49693,-46.46446 231.11815,-129.76222 67.82893,-77.80091 112.60224,-116.3102 165.94574,-142.7291 52.65928,-26.08003 98.49185,-35.86305 197.39491,-42.13422 32.31386,-2.04893 59.88017,-4.85301 61.25848,-6.23129 1.37826,-1.37828 -5.91029,-9.69995 -16.1968,-18.4926 -21.20302,-18.12377 -38.45418,-44.883448 -38.45418,-59.64936 0,-14.689853 15.80096,-35.835678 33.11918,-44.3221942 27.12376,-13.2915423 36.64113,-7.44323152 119.17769,73.2332852 106.92701,104.517269 106.76603,97.798639 4.81248,200.855999 -39.56882,39.99721 -76.75676,75.24196 -82.63991,78.32169 -24.98028,13.07672 -58.24162,1.11926 -69.08671,-24.83669 -9.87431,-23.63252 -4.44812,-38.50092 25.29377,-69.30818 14.34972,-14.86371 24.97199,-28.14331 23.6051,-29.51021 -1.36694,-1.36691 -28.60071,-0.29301 -60.51956,2.38646 -141.00144,11.83655 -183.44733,32.28729 -277.41052,133.65843 -25.82035,27.85598 -55.89631,59.39943 -66.83546,70.09652 -60.71098,59.36768 -141.91828,97.19452 -233.79482,108.90295 -56.820994,7.24109 -58.775325,7.34294 -71.963673,3.74932 z"
     id="path9815"
     inkscape:connector-curvature="0" /><path
     style="opacity:1;fill:#352e09;fill-opacity:1;stroke-width:3.96121192"
     d="M 95.190909,861.36553 C 54.853674,822.6942 18.360157,785.49596 14.094209,778.70284 5.3790295,764.82465 4.2084082,743.85654 11.429821,730.97844 21.109861,713.71583 158.31455,578.11884 171.80551,572.48196 c 37.22341,-15.55293 78.48369,25.96782 62.89051,63.28755 -3.06943,7.34617 -16.72626,25.27124 -30.34853,39.83348 l -24.76774,26.4768 29.24454,-2.3943 C 379.05724,685.74823 421.22882,669.07913 503.08738,583.37253 596.28721,485.79154 625.71889,458.66849 660.76936,438.0592 c 48.08214,-28.27179 108.51776,-47.56949 174.31507,-55.66059 49.88164,-6.13395 53.66024,-6.11066 67.41282,0.41537 20.85807,9.89779 32.83377,35.27638 26.95268,57.11723 -5.0431,18.7286 -22.82795,35.13843 -40.86866,37.70893 -7.01653,0.99974 -32.48871,4.52619 -56.60488,7.83655 -65.80694,9.03314 -123.82919,34.42766 -171.39796,75.01551 -10.73663,9.16101 -38.12587,38.04692 -60.86497,64.19092 -64.81002,74.51451 -106.15173,108.33933 -167.62451,137.14646 -44.49121,20.84929 -89.77252,30.05431 -176.19466,35.81779 -38.12667,2.54267 -70.02217,5.17703 -70.87889,5.85412 -0.85673,0.67713 10.0099,13.49335 24.14804,28.48056 25.97893,27.53902 32.7165,42.07373 28.0375,60.48418 -6.33284,24.91781 -25.47723,39.21081 -52.5199,39.21081 -15.53099,0 -18.95941,-2.69366 -89.490131,-70.31151 z"
     id="path9817"
     inkscape:connector-curvature="0" /></svg>