<?xml version="1.0" encoding="UTF-8" standalone="no"?>
<svg
   xmlns:dc="http://purl.org/dc/elements/1.1/"
   xmlns:cc="http://creativecommons.org/ns#"
   xmlns:rdf="http://www.w3.org/1999/02/22-rdf-syntax-ns#"
   xmlns:svg="http://www.w3.org/2000/svg"
   xmlns="http://www.w3.org/2000/svg"
   xmlns:sodipodi="http://sodipodi.sourceforge.net/DTD/sodipodi-0.dtd"
   xmlns:inkscape="http://www.inkscape.org/namespaces/inkscape"
   version="1.1"
   id="Capa_1"
   x="0px"
   y="0px"
   viewBox="0 0 52.519 52.519"
   style="enable-background:new 0 0 52.519 52.519;"
   xml:space="preserve"
   width="512"
   height="512"
   class=""
   sodipodi:docname="orbit_backward.svg"
   inkscape:version="0.92.2 5c3e80d, 2017-08-06"><metadata
     id="metadata9939"><rdf:RDF><cc:Work
         rdf:about=""><dc:format>image/svg+xml</dc:format><dc:type
           rdf:resource="http://purl.org/dc/dcmitype/StillImage" /><dc:title></dc:title></cc:Work></rdf:RDF></metadata><defs
     id="defs9937" /><sodipodi:namedview
     pagecolor="#ffffff"
     bordercolor="#666666"
     borderopacity="1"
     objecttolerance="10"
     gridtolerance="10"
     guidetolerance="10"
     inkscape:pageopacity="0"
     inkscape:pageshadow="2"
     inkscape:window-width="1041"
     inkscape:window-height="936"
     id="namedview9935"
     showgrid="false"
     inkscape:zoom="0.4609375"
     inkscape:cx="256"
     inkscape:cy="256"
     inkscape:window-x="0"
     inkscape:window-y="0"
     inkscape:window-maximized="0"
     inkscape:current-layer="Capa_1" /><g
     id="g9932"><g
       id="g9930"><path
         style="fill:#242424"
         d="M16.049,31.137H4.001l20.08,19.971l20.08-19.971H32.113c0,0-4.292-17.735,16.064-29.849   c0,0-15.536-3.02-26.794,10.51C21.382,11.797,15.651,17.927,16.049,31.137z"
         data-original="#26B99A"
         class="active-path"
         data-old_color="#2D2F2E"
         id="path9926" /><path
         style="fill:#242424"
         d="M24.081,52.519L1.577,30.137H15.03c-0.092-12.759,5.383-18.767,5.622-19.022   C28.691,1.45,38.933,0,44.318,0c2.446,0,3.985,0.294,4.049,0.307l2.574,0.5l-2.253,1.341C31.371,12.453,32.394,26.663,32.94,30.137   h13.645L24.081,52.519z M6.425,32.137l17.656,17.562l17.656-17.562H31.326l-0.185-0.765c-0.043-0.177-3.881-17.082,14.041-29.358   c-4.784-0.15-15.02,0.795-23.031,10.423c-0.091,0.1-5.481,6.089-5.103,18.67l0.03,1.03H6.425z"
         data-original="#26B99A"
         class="active-path"
         data-old_color="#2D2F2E"
         id="path9928" /></g></g><path
     style="opacity:1;fill:#352e09;fill-opacity:1;stroke-width:2.16949153"
     d="M 125.84502,402.11794 17.572881,294.8393 l 64.369695,-0.11119 64.369694,-0.11116 1.18012,-13.55932 c 0.64907,-7.45763 1.75705,-21.36949 2.4622,-30.91526 3.5195,-47.64486 22.52246,-101.6647 47.40689,-134.76396 C 211.98667,95.92517 245.47009,64.832163 267.21412,50.512594 298.40757,29.970109 332.97903,15.463008 370.66145,7.1033463 402.03025,0.14433321 475.7186,0.7663829 489.05821,8.1028079 490.95782,9.1475343 485.00996,13.815633 471.52887,21.860515 387.81078,71.819531 334.24295,143.88965 321.2398,224.05934 c -3.28797,20.27177 -4.20035,51.95821 -1.83641,63.77795 l 1.35593,6.77966 h 65.34771 65.34771 L 344.08136,402.00678 C 285.026,461.07119 236.12503,509.39661 235.41257,509.39661 c -0.71249,0 -50.01787,-48.2754 -109.56755,-107.27867 z"
     id="path10484"
     inkscape:connector-curvature="0"
     transform="scale(0.10257617)" /></svg>