<?xml version="1.0" encoding="UTF-8" standalone="no"?>
<svg
   xmlns:dc="http://purl.org/dc/elements/1.1/"
   xmlns:cc="http://creativecommons.org/ns#"
   xmlns:rdf="http://www.w3.org/1999/02/22-rdf-syntax-ns#"
   xmlns:svg="http://www.w3.org/2000/svg"
   xmlns="http://www.w3.org/2000/svg"
   xmlns:sodipodi="http://sodipodi.sourceforge.net/DTD/sodipodi-0.dtd"
   xmlns:inkscape="http://www.inkscape.org/namespaces/inkscape"
   version="1.1"
   id="Capa_1"
   x="0px"
   y="0px"
   viewBox="0 0 52.519 52.519"
   style="enable-background:new 0 0 52.519 52.519;"
   xml:space="preserve"
   width="512"
   height="512"
   class=""
   sodipodi:docname="orbit_forward.svg"
   inkscape:version="0.92.2 5c3e80d, 2017-08-06"><metadata
     id="metadata9939"><rdf:RDF><cc:Work
         rdf:about=""><dc:format>image/svg+xml</dc:format><dc:type
           rdf:resource="http://purl.org/dc/dcmitype/StillImage" /><dc:title></dc:title></cc:Work></rdf:RDF></metadata><defs
     id="defs9937" /><sodipodi:namedview
     pagecolor="#ffffff"
     bordercolor="#666666"
     borderopacity="1"
     objecttolerance="10"
     gridtolerance="10"
     guidetolerance="10"
     inkscape:pageopacity="0"
     inkscape:pageshadow="2"
     inkscape:window-width="1041"
     inkscape:window-height="936"
     id="namedview9935"
     showgrid="false"
     inkscape:zoom="0.4609375"
     inkscape:cx="256"
     inkscape:cy="256"
     inkscape:window-x="0"
     inkscape:window-y="0"
     inkscape:window-maximized="0"
     inkscape:current-layer="Capa_1" /><path
     style="opacity:1;fill:#352e09;fill-opacity:1;stroke-width:0.22253813"
     d="m 39.540083,11.677555 11.106141,11.004232 -6.602796,0.0114 -6.602797,0.0114 -0.121052,1.390863 c -0.06658,0.764975 -0.180232,2.192 -0.252563,3.171169 -0.361017,4.887227 -2.310268,10.428375 -4.862818,13.823571 -1.500196,1.995438 -4.934797,5.18484 -7.165216,6.653687 -3.199704,2.107169 -6.745912,3.595252 -10.611231,4.452754 C 11.21006,52.91046 3.6513902,52.846652 2.2830642,52.09411 c -0.194855,-0.107164 0.415254,-0.586 1.798093,-1.411213 8.5874818,-5.124604 14.0822638,-12.517281 15.4160778,-20.740781 0.337267,-2.0794 0.430856,-5.329674 0.188372,-6.542098 L 19.546521,22.704587 H 12.843403 6.1402847 L 17.154235,11.688957 C 23.211908,5.6303557 28.227982,0.67331873 28.301063,0.67331873 c 0.07309,0 5.130642,4.95190597 11.23902,11.00423627 z"
     id="path10484"
     inkscape:connector-curvature="0" /></svg>