<?xml version="1.0" encoding="UTF-8" standalone="no"?>
<!-- Generator: Adobe Illustrator 19.0.0, SVG Export Plug-In . SVG Version: 6.00 Build 0)  -->

<svg
   xmlns:dc="http://purl.org/dc/elements/1.1/"
   xmlns:cc="http://creativecommons.org/ns#"
   xmlns:rdf="http://www.w3.org/1999/02/22-rdf-syntax-ns#"
   xmlns:svg="http://www.w3.org/2000/svg"
   xmlns="http://www.w3.org/2000/svg"
   xmlns:sodipodi="http://sodipodi.sourceforge.net/DTD/sodipodi-0.dtd"
   xmlns:inkscape="http://www.inkscape.org/namespaces/inkscape"
   version="1.1"
   id="Capa_1"
   x="0px"
   y="0px"
   viewBox="0 0 512 512"
   xml:space="preserve"
   sodipodi:docname="role_defend.svg"
   inkscape:version="0.92.2 5c3e80d, 2017-08-06"
   width="512"
   height="512"><metadata
     id="metadata15483"><rdf:RDF><cc:Work
         rdf:about=""><dc:format>image/svg+xml</dc:format><dc:type
           rdf:resource="http://purl.org/dc/dcmitype/StillImage" /><dc:title /></cc:Work></rdf:RDF></metadata><defs
     id="defs15481" /><sodipodi:namedview
     pagecolor="#ffffff"
     bordercolor="#666666"
     borderopacity="1"
     objecttolerance="10"
     gridtolerance="10"
     guidetolerance="10"
     inkscape:pageopacity="0"
     inkscape:pageshadow="2"
     inkscape:window-width="1324"
     inkscape:window-height="1078"
     id="namedview15479"
     showgrid="false"
     inkscape:zoom="1"
     inkscape:cx="328.24576"
     inkscape:cy="269"
     inkscape:window-x="0"
     inkscape:window-y="0"
     inkscape:window-maximized="0"
     inkscape:current-layer="layer4" /><g
     inkscape:groupmode="layer"
     id="layer5"
     inkscape:label="background"
     transform="translate(0,454)"><rect
       style="opacity:1;fill:#ffffd8;fill-opacity:1;stroke:#094074;stroke-width:0;stroke-miterlimit:4;stroke-dasharray:none;stroke-opacity:1"
       id="rect18993"
       width="514.7373"
       height="514.49152"
       x="-0.24576056"
       y="-456" /></g><g
     inkscape:groupmode="layer"
     id="layer4"
     inkscape:label="Layer 1"
     style="display:inline"
     transform="translate(0,454)"><path
       style="fill:#005e16;fill-opacity:1;stroke-width:6.1917367"
       d="m 256,-62.304998 c -13.14506,-5.15772 -25.86908,-12.538267 -37.94297,-22.030198 -38.2773,-30.079454 -61.12481,-78.727934 -61.12481,-130.137914 v -83.3222 c 45.76311,-5.83882 78.25736,-21.75775 99.06778,-35.89969 20.81042,14.14194 53.30465,30.06087 99.06778,35.89969 v 83.3222 c 0,51.40998 -22.84751,100.05846 -61.11862,130.137914 -12.08008,9.491931 -24.80411,16.872478 -37.94916,22.030198 z"
       id="path15444"
       inkscape:connector-curvature="0" /><path
       style="fill:#588401;fill-opacity:1;stroke-width:6.1917367"
       d="m 156.93222,-297.79531 v 83.3222 c 0,51.40998 22.84751,100.05846 61.12481,130.137914 12.07389,9.491931 24.79791,16.872478 37.94297,22.030198 V -333.68881 c -20.81042,14.13575 -53.30467,30.0609 -99.06778,35.8935 z"
       id="path15446"
       inkscape:connector-curvature="0" /><g
       id="g15448"
       transform="matrix(6.1917365,0,0,6.1917365,76.439632,-382.1763)" /><g
       id="g15450"
       transform="matrix(6.1917365,0,0,6.1917365,76.439632,-382.1763)" /><g
       id="g15452"
       transform="matrix(6.1917365,0,0,6.1917365,76.439632,-382.1763)" /><g
       id="g15454"
       transform="matrix(6.1917365,0,0,6.1917365,76.439632,-382.1763)" /><g
       id="g15456"
       transform="matrix(6.1917365,0,0,6.1917365,76.439632,-382.1763)" /><g
       id="g15458"
       transform="matrix(6.1917365,0,0,6.1917365,76.439632,-382.1763)" /><g
       id="g15460"
       transform="matrix(6.1917365,0,0,6.1917365,76.439632,-382.1763)" /><g
       id="g15462"
       transform="matrix(6.1917365,0,0,6.1917365,76.439632,-382.1763)" /><g
       id="g15464"
       transform="matrix(6.1917365,0,0,6.1917365,76.439632,-382.1763)" /><g
       id="g15466"
       transform="matrix(6.1917365,0,0,6.1917365,76.439632,-382.1763)" /><g
       id="g15468"
       transform="matrix(6.1917365,0,0,6.1917365,76.439632,-382.1763)" /><g
       id="g15470"
       transform="matrix(6.1917365,0,0,6.1917365,76.439632,-382.1763)" /><g
       id="g15472"
       transform="matrix(6.1917365,0,0,6.1917365,76.439632,-382.1763)" /><g
       id="g15474"
       transform="matrix(6.1917365,0,0,6.1917365,76.439632,-382.1763)" /><g
       id="g15476"
       transform="matrix(6.1917365,0,0,6.1917365,76.439632,-382.1763)" /></g></svg>