<?xml version="1.0" encoding="UTF-8" standalone="no"?>
<!-- Generator: Adobe Illustrator 19.0.0, SVG Export Plug-In . SVG Version: 6.00 Build 0)  -->

<svg
   xmlns:dc="http://purl.org/dc/elements/1.1/"
   xmlns:cc="http://creativecommons.org/ns#"
   xmlns:rdf="http://www.w3.org/1999/02/22-rdf-syntax-ns#"
   xmlns:svg="http://www.w3.org/2000/svg"
   xmlns="http://www.w3.org/2000/svg"
   xmlns:sodipodi="http://sodipodi.sourceforge.net/DTD/sodipodi-0.dtd"
   xmlns:inkscape="http://www.inkscape.org/namespaces/inkscape"
   version="1.1"
   id="Capa_1"
   x="0px"
   y="0px"
   viewBox="0 0 512.003 512.003"
   xml:space="preserve"
   sodipodi:docname="role_attack.svg"
   inkscape:version="0.92.2 5c3e80d, 2017-08-06"
   style="enable-background:new 0 0 512.003 512.003;"
   inkscape:label="Layer"><metadata
     id="metadata17678"><rdf:RDF><cc:Work
         rdf:about=""><dc:format>image/svg+xml</dc:format><dc:type
           rdf:resource="http://purl.org/dc/dcmitype/StillImage" /><dc:title /></cc:Work></rdf:RDF></metadata><defs
     id="defs17676" /><sodipodi:namedview
     pagecolor="#ffffff"
     bordercolor="#666666"
     borderopacity="1"
     objecttolerance="10"
     gridtolerance="10"
     guidetolerance="10"
     inkscape:pageopacity="0"
     inkscape:pageshadow="2"
     inkscape:window-width="1176"
     inkscape:window-height="1042"
     id="namedview17674"
     showgrid="false"
     inkscape:zoom="1"
     inkscape:cx="176.0015"
     inkscape:cy="188.88082"
     inkscape:window-x="0"
     inkscape:window-y="0"
     inkscape:window-maximized="0"
     inkscape:current-layer="g17625" /><g
     id="g17643" /><g
     id="g17645" /><g
     id="g17647" /><g
     id="g17649" /><g
     id="g17651" /><g
     id="g17653" /><g
     id="g17655" /><g
     id="g17657" /><g
     id="g17659" /><g
     id="g17661" /><g
     id="g17663" /><g
     id="g17665" /><g
     id="g17667" /><g
     id="g17669" /><g
     id="g17671" /><g
     inkscape:groupmode="layer"
     id="layer3"
     inkscape:label="background"><rect
       style="opacity:1;fill:#ffffd8;fill-opacity:1;stroke:#094074;stroke-width:0;stroke-miterlimit:4;stroke-dasharray:none;stroke-opacity:1"
       id="rect18294"
       width="512"
       height="513"
       x="1"
       y="1.0029907" /></g><g
     inkscape:groupmode="layer"
     id="layer2"
     inkscape:label="Layer"
     style="display:inline"><g
       transform="matrix(1.25,0,0,-1.25,0,45)"
       id="g17641"><g
         id="g17625"
         style="fill:#2188dd;fill-opacity:1"><path
           style="fill:#588401;fill-opacity:1"
           d="M 81.433,-254.302 113.611,-286.475 366.98314,-64.762274 398.224,30.31 303.15673,-2.6664638 Z"
           id="polygon17623"
           inkscape:connector-curvature="0"
           sodipodi:nodetypes="cccccc" /></g><path
         style="fill:#005e16;fill-opacity:1"
         d="m 108.087,-259.827 5.524,-26.648 L 366.98314,-64.762274 398.224,30.31 Z"
         id="polygon17627"
         inkscape:connector-curvature="0"
         sodipodi:nodetypes="ccccc" /><g
         id="g17639"
         inkscape:label="g17639"><g
           id="g17633"
           style="opacity:1;fill:#094074;fill-opacity:1;stroke:#094074;stroke-width:0.80000001;stroke-miterlimit:4;stroke-dasharray:none;stroke-opacity:1"><polygon
             style="fill:#352e09;fill-opacity:1;stroke:#352e09;stroke-width:0.80000001;stroke-miterlimit:4;stroke-dasharray:none;stroke-opacity:1"
             points="17.071,-350.85 17.072,-350.851 17.071,-350.849 "
             id="polygon17629" /><polygon
             style="fill:#352e09;fill-opacity:1;stroke:#352e09;stroke-width:0.80000001;stroke-miterlimit:4;stroke-dasharray:none;stroke-opacity:1"
             points="81.433,-254.302 29.807,-315.305 52.6,-338.108 113.611,-286.475 "
             id="polygon17631" /></g><path
           style="fill:#352e09;fill-opacity:1;stroke:#352e09;stroke-opacity:1"
           d="m 129.707,-302.568 c 6.656,-6.668 17.477,-6.668 24.133,0 6.656,6.656 6.656,17.465 0,24.133 l -64.364,64.364 c -6.668,6.668 -17.465,6.656 -24.133,0 -6.668,-6.668 -6.668,-17.477 0,-24.144 l 16.09,-16.086 32.179,-32.173 z"
           id="path17635"
           inkscape:connector-curvature="0" /><path
           style="fill:#352e09;fill-opacity:1;stroke:#352e09;stroke-opacity:1"
           d="m 52.6,-338.108 -0.673,0.673 -22.792,22.803 -0.668,0.668 c -6.668,6.668 -17.477,6.656 -24.144,0 -3.325,-3.331 -4.992,-7.695 -4.996,-12.06 v -0.024 c 0.002,-4.365 1.666,-8.729 4.996,-12.06 l 12.075,-12.069 0.001,-10e-4 12.068,-12.062 c 6.656,-6.668 17.477,-6.668 24.133,0 6.656,6.667 6.656,17.476 0,24.132 z"
           id="path17637"
           inkscape:connector-curvature="0" /></g></g></g></svg>