<?xml version="1.0" encoding="iso-8859-1"?>
<!-- Generator: Adobe Illustrator 16.0.0, SVG Export Plug-In . SVG Version: 6.00 Build 0)  -->
<!DOCTYPE svg PUBLIC "-//W3C//DTD SVG 1.1//EN" "http://www.w3.org/Graphics/SVG/1.1/DTD/svg11.dtd">
<svg version="1.1" id="Capa_1" xmlns="http://www.w3.org/2000/svg" xmlns:xlink="http://www.w3.org/1999/xlink" x="0px" y="0px"
	 width="908.901px" height="908.901px" viewBox="0 0 908.901 908.901" style="enable-background:new 0 0 908.901 908.901;"
	 xml:space="preserve">
<g>
	<path d="M307.634,349.533c0.826,0,1.51-0.007,2.045-0.016L394,349.19l-42.036,42.542c-20.379,20.625-20.18,53.866,0.445,74.245
		c10.231,10.109,23.566,15.155,36.897,15.155c13.541,0,27.078-5.207,37.347-15.601l131.684-133.271
		c20.379-20.625,20.18-53.866-0.445-74.245L426.412,128.103c-20.625-20.379-53.865-20.18-74.245,0.445
		c-20.379,20.625-20.181,53.866,0.444,74.245l41.895,41.394l-85.646,0.332l-1.604,0.031c-0.271,0.007-27.857,0.333-67.073-12.27
		c-56.398-18.125-106.021-52.333-147.491-101.673c-18.657-22.197-51.774-25.066-73.969-6.41
		c-22.196,18.655-25.066,51.772-6.411,73.969C134.331,343.34,283.218,349.533,307.634,349.533z"/>
	<path d="M598.381,560.424h-71.104l42.251-41.747c20.625-20.379,20.824-53.619,0.445-74.244
		c-20.38-20.625-53.62-20.824-74.245-0.445L364.249,573.9c-20.625,20.379-20.824,53.62-0.445,74.245l131.682,133.271
		c10.271,10.395,23.806,15.601,37.348,15.601c13.33,0,26.667-5.047,36.897-15.155c20.625-20.379,20.824-53.62,0.445-74.245
		l-41.689-42.192h70.381l0.47,0.036l1.108-0.056c2.728,0.005,32.121,0.245,71.957,13.553
		c54.997,18.374,103.446,51.873,144.003,99.566c10.386,12.211,25.155,18.491,40.021,18.491c12.023,0,24.107-4.108,33.985-12.507
		c22.088-18.783,24.768-51.917,5.983-74.005C770.111,561.999,615.311,560.149,598.381,560.424z"/>
</g>
<g>
</g>
<g>
</g>
<g>
</g>
<g>
</g>
<g>
</g>
<g>
</g>
<g>
</g>
<g>
</g>
<g>
</g>
<g>
</g>
<g>
</g>
<g>
</g>
<g>
</g>
<g>
</g>
<g>
</g>
</svg>
