<?xml version="1.0" encoding="UTF-8" standalone="no"?>
<!-- Generator: Adobe Illustrator 16.0.0, SVG Export Plug-In . SVG Version: 6.00 Build 0)  -->

<svg
   xmlns:dc="http://purl.org/dc/elements/1.1/"
   xmlns:cc="http://creativecommons.org/ns#"
   xmlns:rdf="http://www.w3.org/1999/02/22-rdf-syntax-ns#"
   xmlns:svg="http://www.w3.org/2000/svg"
   xmlns="http://www.w3.org/2000/svg"
   xmlns:sodipodi="http://sodipodi.sourceforge.net/DTD/sodipodi-0.dtd"
   xmlns:inkscape="http://www.inkscape.org/namespaces/inkscape"
   version="1.1"
   id="Capa_1"
   x="0px"
   y="0px"
   width="948.346px"
   height="948.346px"
   viewBox="0 0 948.346 948.346"
   style="enable-background:new 0 0 948.346 948.346;"
   xml:space="preserve"
   sodipodi:docname="packets.svg"
   inkscape:version="0.92.2 5c3e80d, 2017-08-06"><metadata
     id="metadata24925"><rdf:RDF><cc:Work
         rdf:about=""><dc:format>image/svg+xml</dc:format><dc:type
           rdf:resource="http://purl.org/dc/dcmitype/StillImage" /><dc:title></dc:title></cc:Work></rdf:RDF></metadata><defs
     id="defs24923" /><sodipodi:namedview
     pagecolor="#ffffff"
     bordercolor="#666666"
     borderopacity="1"
     objecttolerance="10"
     gridtolerance="10"
     guidetolerance="10"
     inkscape:pageopacity="0"
     inkscape:pageshadow="2"
     inkscape:window-width="774"
     inkscape:window-height="480"
     id="namedview24921"
     showgrid="false"
     inkscape:zoom="0.24885432"
     inkscape:cx="474.173"
     inkscape:cy="474.173"
     inkscape:window-x="0"
     inkscape:window-y="0"
     inkscape:window-maximized="0"
     inkscape:current-layer="Capa_1" /><g
     id="g24888"><g
       id="g24886"><path
         d="M457.701,939.221c0,0,0.001,0,0.001,0.002l16.472,9.123l16.472-9.123c0,0,0,0,0-0.002l246.951-136.771l158.17-87.602    v-20.037v-480.02v-21.83l-19.85-9.085l-47.105-21.56L474.173,0L119.534,162.316l-47.105,21.56l-19.85,9.085v21.83v480.02v20.037    l158.171,87.602L457.701,939.221z M586.337,328.471l-112.164,62.121L362.01,328.471L161.968,217.678L474.173,74.784    l312.205,142.894L586.337,328.471z M508.173,851.781V449.494l319.594-177.005v402.287L508.173,851.781z M440.173,449.494v402.288    L120.58,674.775V272.488L440.173,449.494z"
         id="path24884" /></g></g><g
     id="g24890" /><g
     id="g24892" /><g
     id="g24894" /><g
     id="g24896" /><g
     id="g24898" /><g
     id="g24900" /><g
     id="g24902" /><g
     id="g24904" /><g
     id="g24906" /><g
     id="g24908" /><g
     id="g24910" /><g
     id="g24912" /><g
     id="g24914" /><g
     id="g24916" /><g
     id="g24918" /></svg>